<svg width="114" height="82" viewBox="0 0 114 82" fill="none" xmlns="http://www.w3.org/2000/svg">
<path d="M93.9198 5.65709C94.0905 5.82638 94.2072 6.0425 94.255 6.27811C94.3029 6.51371 94.2798 6.75821 94.1886 6.98068C94.0975 7.20314 93.9424 7.39357 93.743 7.52788C93.5436 7.66218 93.3088 7.73432 93.0684 7.73517L83.779 7.772C83.4567 7.77326 83.1471 7.64644 82.9183 7.41943C82.6895 7.19243 82.5602 6.88383 82.559 6.56153C82.5577 6.23923 82.6845 5.92963 82.9115 5.70084C83.1385 5.47205 83.4471 5.34281 83.7694 5.34154L93.0589 5.30471H93.0639C93.2228 5.30421 93.3802 5.33509 93.527 5.39556C93.6739 5.45603 93.8074 5.54491 93.9198 5.65709ZM98.3725 5.28376H98.3674L97.0404 5.28885C96.7181 5.28943 96.4093 5.41803 96.1818 5.64635C95.9543 5.87466 95.8269 6.18399 95.8274 6.50629C95.828 6.82859 95.9566 7.13746 96.1849 7.36494C96.4132 7.59242 96.7226 7.71989 97.0449 7.7193H97.05L98.3769 7.71422C98.6992 7.71363 99.0081 7.58503 99.2356 7.35672C99.4631 7.1284 99.5905 6.81907 99.5899 6.49677C99.5893 6.17447 99.4608 5.86561 99.2324 5.63812C99.0041 5.41064 98.6948 5.28317 98.3725 5.28376ZM60.1246 28.9274C59.9753 28.8708 59.8164 28.8442 59.6569 28.8491C59.4974 28.854 59.3403 28.8903 59.1948 28.9558C59.0493 29.0214 58.9182 29.115 58.8088 29.2312C58.6995 29.3475 58.6141 29.4842 58.5576 29.6334L53.0757 44.1095C52.9616 44.4109 52.9718 44.7453 53.1042 45.0392C53.2366 45.333 53.4803 45.5623 53.7817 45.6764C54.0832 45.7906 54.4176 45.7804 54.7114 45.648C55.0053 45.5155 55.2346 45.2718 55.3487 44.9704L60.8306 30.4943C60.8871 30.3451 60.9137 30.1862 60.9088 30.0267C60.904 29.8671 60.8677 29.7101 60.8021 29.5646C60.7366 29.4191 60.643 29.2879 60.5267 29.1786C60.4105 29.0693 60.2738 28.9839 60.1246 28.9274ZM66.9817 29.9051C66.8823 29.7801 66.759 29.676 66.6191 29.5989C66.4791 29.5219 66.3253 29.4734 66.1664 29.4563C66.1211 29.4513 66.0755 29.4487 66.0299 29.4486C65.8011 29.4492 65.5772 29.5143 65.3838 29.6364C65.1903 29.7585 65.0353 29.9327 64.9364 30.139C64.8375 30.3453 64.7989 30.5753 64.8248 30.8026C64.8508 31.0299 64.9404 31.2452 65.0833 31.4239L69.7816 37.3L65.0833 43.1761C64.8908 43.4286 64.8047 43.7463 64.8434 44.0614C64.8821 44.3765 65.0425 44.664 65.2904 44.8624C65.5382 45.0608 65.8537 45.1544 66.1696 45.1232C66.4856 45.092 66.7767 44.9385 66.981 44.6955L72.2895 38.06C72.4637 37.8451 72.5588 37.5769 72.5588 37.3003C72.5588 37.0237 72.4637 36.7555 72.2895 36.5406L66.9817 29.9051ZM44.1203 37.3006L48.8186 31.4245C48.9208 31.3001 48.9972 31.1567 49.0435 31.0025C49.0898 30.8483 49.105 30.6865 49.0883 30.5264C49.0716 30.3663 49.0232 30.2112 48.9461 30.0699C48.8689 29.9286 48.7645 29.8041 48.6388 29.7035C48.5131 29.6029 48.3687 29.5283 48.214 29.484C48.0593 29.4396 47.8972 29.4265 47.7374 29.4452C47.5775 29.464 47.423 29.5143 47.2827 29.5932C47.1424 29.6722 47.0192 29.7782 46.9202 29.9051L41.613 36.5406C41.4388 36.7555 41.3437 37.0237 41.3437 37.3003C41.3437 37.5769 41.4388 37.8451 41.613 38.06L46.9215 44.6955C47.0205 44.8224 47.1437 44.9285 47.2839 45.0074C47.4242 45.0864 47.5788 45.1367 47.7387 45.1554C47.8985 45.1742 48.0605 45.161 48.2153 45.1167C48.37 45.0723 48.5144 44.9977 48.6401 44.8971C48.7657 44.7965 48.8702 44.672 48.9473 44.5307C49.0245 44.3895 49.0729 44.2343 49.0896 44.0742C49.1063 43.9141 49.0911 43.7523 49.0448 43.5981C48.9985 43.444 48.922 43.3005 48.8199 43.1761L44.1203 37.3006ZM113.499 68.8718V72.6235C113.496 75.1074 112.508 77.4887 110.752 79.2451C108.995 81.0015 106.614 81.9895 104.13 81.9923H9.3688C6.88491 81.9895 4.50359 81.0015 2.74722 79.2451C0.990844 77.4887 0.00285669 75.1074 0 72.6235V68.8699C0.00033615 68.5452 0.129465 68.2338 0.359077 68.0042C0.58869 67.7746 0.900041 67.6455 1.22476 67.6451H7.15613V6.38788C7.15798 4.69428 7.83157 3.07057 9.02913 1.87301C10.2267 0.675448 11.8504 0.00184864 13.544 0H99.4195C101.113 0.00201666 102.737 0.675689 103.934 1.87323C105.131 3.07077 105.805 4.69439 105.807 6.38788V67.647H112.275C112.599 67.6474 112.911 67.7765 113.14 68.0061C113.37 68.2357 113.499 68.547 113.5 68.8718H113.499ZM9.60499 67.647H103.357V6.38788C103.355 5.34438 102.94 4.3441 102.202 3.60623C101.464 2.86836 100.464 2.45309 99.4201 2.45141H13.544C12.5005 2.45309 11.5002 2.86836 10.7624 3.60623C10.0245 4.3441 9.60923 5.34438 9.60755 6.38788L9.60499 67.647ZM45.8885 70.0965L45.9088 70.5911C45.9409 71.4002 46.2853 72.1653 46.8697 72.7257C47.4542 73.2861 48.2331 73.5982 49.0427 73.5962H64.4553C65.2651 73.598 66.044 73.2858 66.6284 72.7253C67.2128 72.1648 67.5572 71.3996 67.5893 70.5905L67.6096 70.0965H45.8885ZM111.05 70.0965H70.047L70.0388 70.5632C70.0049 72.0241 69.4026 73.4141 68.36 74.4379C67.3174 75.4617 65.9166 76.0385 64.4553 76.0457H49.0415C47.5801 76.0387 46.1791 75.4618 45.1364 74.4379C44.0937 73.4139 43.4916 72.0236 43.4581 70.5626L43.4491 70.0965H2.44948V72.6235C2.45133 74.4584 3.18109 76.2176 4.47855 77.5151C5.77601 78.8125 7.53519 79.5422 9.37008 79.5441H104.131C105.966 79.5424 107.725 78.8127 109.023 77.5152C110.32 76.2178 111.05 74.4585 111.052 72.6235L111.05 70.0965Z" fill="url(#paint0_linear_175_1373)"/>
<defs>
<linearGradient id="paint0_linear_175_1373" x1="0" y1="40.9962" x2="113.5" y2="40.9962" gradientUnits="userSpaceOnUse">
<stop stop-color="#09C9D3"/>
<stop offset="1" stop-color="#00E6CA"/>
</linearGradient>
</defs>
</svg>
