<svg width="38" height="35" viewBox="0 0 38 35" fill="none" xmlns="http://www.w3.org/2000/svg">
<path d="M1.1875 0H5.9375C6.25244 0 6.55449 0.125111 6.77719 0.347811C6.99989 0.57051 7.125 0.872555 7.125 1.1875V2.375H15.4375V1.1875C15.4375 0.872555 15.5626 0.57051 15.7853 0.347811C16.008 0.125111 16.3101 0 16.625 0H21.375C21.6899 0 21.992 0.125111 22.2147 0.347811C22.4374 0.57051 22.5625 0.872555 22.5625 1.1875V2.375H30.875V1.1875C30.875 0.872555 31.0001 0.57051 31.2228 0.347811C31.4455 0.125111 31.7476 0 32.0625 0H36.8125C37.1274 0 37.4295 0.125111 37.6522 0.347811C37.8749 0.57051 38 0.872555 38 1.1875V5.9375C38 6.25244 37.8749 6.55449 37.6522 6.77719C37.4295 6.99989 37.1274 7.125 36.8125 7.125H32.0625C31.7476 7.125 31.4455 6.99989 31.2228 6.77719C31.0001 6.55449 30.875 6.25244 30.875 5.9375V4.75H22.5625V5.9375C22.5625 6.25244 22.4374 6.55449 22.2147 6.77719C21.992 6.99989 21.6899 7.125 21.375 7.125H16.625C16.3101 7.125 16.008 6.99989 15.7853 6.77719C15.5626 6.55449 15.4375 6.25244 15.4375 5.9375V5.10625C12.0888 5.9375 6.38875 8.91813 5.9375 19H7.125C7.43994 19 7.74199 19.1251 7.96469 19.3478C8.18739 19.5705 8.3125 19.8726 8.3125 20.1875V24.9375C8.3125 25.2524 8.18739 25.5545 7.96469 25.7772C7.74199 25.9999 7.43994 26.125 7.125 26.125H2.375C2.06006 26.125 1.75801 25.9999 1.53531 25.7772C1.31261 25.5545 1.1875 25.2524 1.1875 24.9375V20.1875C1.1875 19.8726 1.31261 19.5705 1.53531 19.3478C1.75801 19.1251 2.06006 19 2.375 19H3.5625C3.85938 11.0675 7.125 6.91125 10.4975 4.75H7.125V5.9375C7.125 6.25244 6.99989 6.55449 6.77719 6.77719C6.55449 6.99989 6.25244 7.125 5.9375 7.125H1.1875C0.872555 7.125 0.570509 6.99989 0.34781 6.77719C0.12511 6.55449 0 6.25244 0 5.9375V1.1875C0 0.872555 0.12511 0.57051 0.34781 0.347811C0.570509 0.125111 0.872555 0 1.1875 0V0ZM33.25 4.75H35.625V2.375H33.25V4.75ZM17.8125 4.75H20.1875V2.375H17.8125V4.75ZM5.9375 21.375H3.5625V23.75H5.9375V21.375ZM2.375 4.75H4.75V2.375H2.375V4.75Z" fill="#0A142F"/>
<path d="M26.2558 8.96566C26.3543 8.76805 26.5059 8.60181 26.6937 8.48561C26.8814 8.36942 27.0978 8.30786 27.3186 8.30786C27.5394 8.30786 27.7558 8.36942 27.9436 8.48561C28.1313 8.60181 28.283 8.76805 28.3814 8.96566L35.5064 23.2157C35.6163 23.4383 35.6536 23.6898 35.6132 23.9347C35.5727 24.1797 35.4565 24.4058 35.2808 24.5813L33.6658 26.1963C33.8931 26.2812 34.0889 26.4337 34.2269 26.6333C34.3649 26.8328 34.4385 27.0699 34.4377 27.3125V29.6875C34.4377 30.0025 34.3126 30.3045 34.0899 30.5272C33.8672 30.7499 33.5651 30.875 33.2502 30.875H32.0627V34.4375H29.6877V30.875H24.9377V34.4375H22.5627V30.875H21.3752C21.0603 30.875 20.7582 30.7499 20.5355 30.5272C20.3128 30.3045 20.1877 30.0025 20.1877 29.6875V27.3125C20.1902 27.0705 20.2666 26.8351 20.4067 26.6377C20.5468 26.4403 20.7438 26.2904 20.9714 26.2082L19.3564 24.5932C19.1808 24.4177 19.0646 24.1916 19.0241 23.9466C18.9836 23.7017 19.021 23.4502 19.1308 23.2275L26.2558 8.96566ZM24.2371 26.125H30.3883L33.0008 23.5125L28.5002 14.535V21.375H26.1252V14.535L21.6364 23.5244L24.2371 26.125Z" fill="#0A142F"/>
</svg>
