<svg width="112" height="112" viewBox="0 0 112 112" fill="none" xmlns="http://www.w3.org/2000/svg">
<g clip-path="url(#clip0_182_263)">
<path d="M72.625 0C50.9128 0 33.25 17.6628 33.25 39.375V63C33.25 63.4641 33.4344 63.9092 33.7626 64.2374C34.0908 64.5656 34.5359 64.75 35 64.75H42V85.75C42 86.2141 42.1844 86.6592 42.5126 86.9874C42.8408 87.3156 43.2859 87.5 43.75 87.5H68.25V108.5H56V112H71.75V87.5H77V84H45.5V63C45.5 62.5359 45.3156 62.0908 44.9874 61.7626C44.6592 61.4344 44.2141 61.25 43.75 61.25H36.75V39.375C36.75 19.593 52.843 3.5 72.625 3.5C92.407 3.5 108.5 19.593 108.5 39.375V112H112V39.375C112 17.6628 94.3372 0 72.625 0Z" fill="black"/>
<path d="M70 61.25H77C77.4641 61.25 77.9092 61.0656 78.2374 60.7374C78.5656 60.4092 78.75 59.9641 78.75 59.5V52.829C80.3442 51.9088 81.6685 50.5856 82.5899 48.992C83.5114 47.3985 83.9977 45.5908 84 43.75V43.295C84 41.2825 84.7175 39.27 86.0738 37.4762C88.1441 34.7518 89.2602 31.4218 89.25 28C89.2486 25.7835 88.78 23.5921 87.8748 21.5688C86.9696 19.5455 85.6481 17.7358 83.9965 16.2575C82.3363 14.7773 80.3822 13.6642 78.2622 12.9911C76.1422 12.318 73.904 12.1001 71.694 12.3515C64.5575 13.1495 58.7458 18.8983 57.8725 26.0225C57.3616 30.0647 58.4387 34.1475 60.8772 37.4115C62.2667 39.2665 63 41.3052 63 43.302V43.75C63.0023 45.5908 63.4886 47.3985 64.4101 48.992C65.3315 50.5856 66.6558 51.9088 68.25 52.829V59.5C68.25 59.9641 68.4344 60.4092 68.7626 60.7374C69.0908 61.0656 69.5359 61.25 70 61.25ZM71.75 35V29.0815L72.7178 29.5645C72.9609 29.6862 73.229 29.7495 73.5009 29.7495C73.7727 29.7495 74.0409 29.6862 74.284 29.5645L75.25 29.0815V35H71.75ZM75.25 54.25V57.75H71.75V54.25H75.25ZM63.679 35.315C61.7817 32.7732 60.9453 29.5941 61.3463 26.4478C62.0235 20.9142 66.5385 16.45 72.0825 15.8305C72.5638 15.7762 73.0415 15.75 73.5157 15.75C76.538 15.75 79.3887 16.8315 81.6637 18.8668C82.9485 20.0164 83.9764 21.4241 84.6805 22.9978C85.3846 24.5715 85.749 26.276 85.75 28C85.7575 30.6597 84.8898 33.248 83.2808 35.3657C81.4625 37.772 80.5 40.5142 80.5 43.295V43.75C80.5 47.0015 78.26 49.7192 75.25 50.5015V38.5H77C77.4641 38.5 77.9092 38.3156 78.2374 37.9874C78.5656 37.6592 78.75 37.2141 78.75 36.75V26.25C78.7511 25.9513 78.6756 25.6573 78.5307 25.3961C78.3857 25.1349 78.1763 24.9153 77.9222 24.7582C77.6682 24.601 77.3781 24.5117 77.0797 24.4987C76.7813 24.4856 76.4845 24.5494 76.2178 24.6838L73.5 26.0435L70.7822 24.6855C70.5156 24.5512 70.219 24.4875 69.9207 24.5004C69.6225 24.5134 69.3325 24.6025 69.0785 24.7595C68.8245 24.9164 68.615 25.1358 68.47 25.3967C68.3249 25.6577 68.2492 25.9515 68.25 26.25V36.75C68.25 37.2141 68.4344 37.6592 68.7626 37.9874C69.0908 38.3156 69.5359 38.5 70 38.5H71.75V50.5015C68.74 49.7192 66.5 47.0015 66.5 43.75V43.302C66.5 40.5422 65.5235 37.7808 63.679 35.315ZM5.25 24.5H8.75V19.25H14V15.75H8.75V10.5H5.25V15.75H0V19.25H5.25V24.5ZM26.25 10.5H29.75V7H33.25V3.5H29.75V0H26.25V3.5H22.75V7H26.25V10.5ZM21 31.5H24.5V28H28V24.5H24.5V21H21V24.5H17.5V28H21V31.5ZM5.25 61.25H8.75V110.25H5.25V61.25ZM22.75 66.5H26.25V98H22.75V66.5ZM5.25 50.75H8.75V57.75H5.25V50.75ZM5.25 40.25H8.75V47.25H5.25V40.25ZM22.75 52.5H26.25V63H22.75V52.5ZM14 50.75H17.5V71.75H14V50.75Z" fill="#654ACE"/>
</g>
<defs>
<clipPath id="clip0_182_263">
<rect width="112" height="112" fill="white"/>
</clipPath>
</defs>
</svg>
