<svg width="29" height="23" viewBox="0 0 29 23" fill="none" xmlns="http://www.w3.org/2000/svg">
<path d="M24.7409 21.3249L2.02519 4.65686C1.28492 4.11368 1.12515 3.07323 1.66834 2.33297L1.77186 2.19188C2.31505 1.45161 3.35549 1.29184 4.09575 1.83503L26.8115 18.5031C27.5518 19.0463 27.7115 20.0867 27.1684 20.827L27.0648 20.9681C26.5217 21.7084 25.4812 21.8681 24.7409 21.3249Z" fill="white"/>
<path d="M26.812 4.6575L4.09554 21.3246C3.35525 21.8678 2.31481 21.708 1.77166 20.9677L1.66814 20.8266C1.12499 20.0863 1.2848 19.0459 2.02509 18.5027L24.7415 1.83558C25.4818 1.29242 26.5223 1.45223 27.0654 2.19252L27.1689 2.33362C27.7121 3.07391 27.5523 4.11434 26.812 4.6575Z" fill="white"/>
</svg>
