<svg width="32" height="22" viewBox="0 0 32 22" fill="none" xmlns="http://www.w3.org/2000/svg">
<path d="M30.0875 12.75H1.9125C0.994327 12.75 0.25 12.0057 0.25 11.0875V10.9125C0.25 9.99433 0.994327 9.25 1.9125 9.25H30.0875C31.0057 9.25 31.75 9.99433 31.75 10.9125V11.0875C31.75 12.0057 31.0057 12.75 30.0875 12.75Z" fill="white"/>
<path d="M30.0875 4H1.9125C0.994327 4 0.25 3.25567 0.25 2.3375V2.1625C0.25 1.24433 0.994327 0.5 1.9125 0.5H30.0875C31.0057 0.5 31.75 1.24433 31.75 2.1625V2.3375C31.75 3.25567 31.0057 4 30.0875 4Z" fill="white"/>
<path d="M30.0875 21.5H1.9125C0.994327 21.5 0.25 20.7557 0.25 19.8375V19.6625C0.25 18.7443 0.994327 18 1.9125 18H30.0875C31.0057 18 31.75 18.7443 31.75 19.6625V19.8375C31.75 20.7557 31.0057 21.5 30.0875 21.5Z" fill="white"/>
</svg>
