<svg width="112" height="112" viewBox="0 0 112 112" fill="none" xmlns="http://www.w3.org/2000/svg">
<path d="M5.25 14H12.25C12.7141 14 13.1592 13.8156 13.4874 13.4874C13.8156 13.1592 14 12.7141 14 12.25V5.25C14 4.78587 13.8156 4.34075 13.4874 4.01256C13.1592 3.68437 12.7141 3.5 12.25 3.5H5.25C4.78587 3.5 4.34075 3.68437 4.01256 4.01256C3.68437 4.34075 3.5 4.78587 3.5 5.25V12.25C3.5 12.7141 3.68437 13.1592 4.01256 13.4874C4.34075 13.8156 4.78587 14 5.25 14ZM7 7H10.5V10.5H7V7Z" fill="black"/>
<path d="M5.25 61.25H12.25C12.7141 61.25 13.1592 61.0656 13.4874 60.7374C13.8156 60.4092 14 59.9641 14 59.5V52.5C14 52.0359 13.8156 51.5908 13.4874 51.2626C13.1592 50.9344 12.7141 50.75 12.25 50.75H5.25C4.78587 50.75 4.34075 50.9344 4.01256 51.2626C3.68437 51.5908 3.5 52.0359 3.5 52.5V59.5C3.5 59.9641 3.68437 60.4092 4.01256 60.7374C4.34075 61.0656 4.78587 61.25 5.25 61.25ZM7 54.25H10.5V57.75H7V54.25Z" fill="black"/>
<path d="M5.25 108.5H12.25C12.7141 108.5 13.1592 108.316 13.4874 107.987C13.8156 107.659 14 107.214 14 106.75V99.75C14 99.2859 13.8156 98.8408 13.4874 98.5126C13.1592 98.1844 12.7141 98 12.25 98H5.25C4.78587 98 4.34075 98.1844 4.01256 98.5126C3.68437 98.8408 3.5 99.2859 3.5 99.75V106.75C3.5 107.214 3.68437 107.659 4.01256 107.987C4.34075 108.316 4.78587 108.5 5.25 108.5ZM7 101.5H10.5V105H7V101.5Z" fill="black"/>
<path d="M59.5 14C59.9641 14 60.4092 13.8156 60.7374 13.4874C61.0656 13.1592 61.25 12.7141 61.25 12.25V5.25C61.25 4.78587 61.0656 4.34075 60.7374 4.01256C60.4092 3.68437 59.9641 3.5 59.5 3.5H52.5C52.0359 3.5 51.5908 3.68437 51.2626 4.01256C50.9344 4.34075 50.75 4.78587 50.75 5.25V12.25C50.75 12.7141 50.9344 13.1592 51.2626 13.4874C51.5908 13.8156 52.0359 14 52.5 14H59.5ZM54.25 7H57.75V10.5H54.25V7Z" fill="black"/>
<path d="M59.5 108.5C59.9641 108.5 60.4092 108.316 60.7374 107.987C61.0656 107.659 61.25 107.214 61.25 106.75V99.75C61.25 99.2859 61.0656 98.8408 60.7374 98.5126C60.4092 98.1844 59.9641 98 59.5 98H52.5C52.0359 98 51.5908 98.1844 51.2626 98.5126C50.9344 98.8408 50.75 99.2859 50.75 99.75V106.75C50.75 107.214 50.9344 107.659 51.2626 107.987C51.5908 108.316 52.0359 108.5 52.5 108.5H59.5ZM54.25 101.5H57.75V105H54.25V101.5Z" fill="black"/>
<path d="M106.75 3.5H99.75C99.2859 3.5 98.8408 3.68437 98.5126 4.01256C98.1844 4.34075 98 4.78587 98 5.25V12.25C98 12.7141 98.1844 13.1592 98.5126 13.4874C98.8408 13.8156 99.2859 14 99.75 14H106.75C107.214 14 107.659 13.8156 107.987 13.4874C108.316 13.1592 108.5 12.7141 108.5 12.25V5.25C108.5 4.78587 108.316 4.34075 107.987 4.01256C107.659 3.68437 107.214 3.5 106.75 3.5ZM105 10.5H101.5V7H105V10.5Z" fill="black"/>
<path d="M106.75 50.75H99.75C99.2859 50.75 98.8408 50.9344 98.5126 51.2626C98.1844 51.5908 98 52.0359 98 52.5V59.5C98 59.9641 98.1844 60.4092 98.5126 60.7374C98.8408 61.0656 99.2859 61.25 99.75 61.25H106.75C107.214 61.25 107.659 61.0656 107.987 60.7374C108.316 60.4092 108.5 59.9641 108.5 59.5V52.5C108.5 52.0359 108.316 51.5908 107.987 51.2626C107.659 50.9344 107.214 50.75 106.75 50.75ZM105 57.75H101.5V54.25H105V57.75Z" fill="black"/>
<path d="M106.75 98H99.75C99.2859 98 98.8408 98.1844 98.5126 98.5126C98.1844 98.8408 98 99.2859 98 99.75V106.75C98 107.214 98.1844 107.659 98.5126 107.987C98.8408 108.316 99.2859 108.5 99.75 108.5H106.75C107.214 108.5 107.659 108.316 107.987 107.987C108.316 107.659 108.5 107.214 108.5 106.75V99.75C108.5 99.2859 108.316 98.8408 107.987 98.5126C107.659 98.1844 107.214 98 106.75 98ZM105 105H101.5V101.5H105V105Z" fill="black"/>
<path d="M29.75 7H35V10.5H29.75V7Z" fill="black"/>
<path d="M19.25 7H24.5V10.5H19.25V7Z" fill="black"/>
<path d="M40.25 7H45.5V10.5H40.25V7Z" fill="black"/>
<path d="M77 7H82.25V10.5H77V7Z" fill="black"/>
<path d="M66.5 7H71.75V10.5H66.5V7Z" fill="black"/>
<path d="M87.5 7H92.75V10.5H87.5V7Z" fill="black"/>
<path d="M77 101.5H82.25V105H77V101.5Z" fill="black"/>
<path d="M66.5 101.5H71.75V105H66.5V101.5Z" fill="black"/>
<path d="M87.5 101.5H92.75V105H87.5V101.5Z" fill="black"/>
<path d="M29.75 101.5H35V105H29.75V101.5Z" fill="black"/>
<path d="M19.25 101.5H24.5V105H19.25V101.5Z" fill="black"/>
<path d="M40.25 101.5H45.5V105H40.25V101.5Z" fill="black"/>
<path d="M7 29.75H10.5V35H7V29.75Z" fill="black"/>
<path d="M7 40.25H10.5V45.5H7V40.25Z" fill="black"/>
<path d="M7 19.25H10.5V24.5H7V19.25Z" fill="black"/>
<path d="M101.5 29.75H105V35H101.5V29.75Z" fill="black"/>
<path d="M101.5 40.25H105V45.5H101.5V40.25Z" fill="black"/>
<path d="M101.5 19.25H105V24.5H101.5V19.25Z" fill="black"/>
<path d="M101.5 77H105V82.25H101.5V77Z" fill="black"/>
<path d="M101.5 87.5H105V92.75H101.5V87.5Z" fill="black"/>
<path d="M101.5 66.5H105V71.75H101.5V66.5Z" fill="black"/>
<path d="M7 77H10.5V82.25H7V77Z" fill="black"/>
<path d="M7 87.5H10.5V92.75H7V87.5Z" fill="black"/>
<path d="M7 66.5H10.5V71.75H7V66.5Z" fill="black"/>
<path d="M17.5 19.25V92.75C17.5 93.2141 17.6844 93.6592 18.0126 93.9874C18.3408 94.3156 18.7859 94.5 19.25 94.5H92.75C93.2141 94.5 93.6592 94.3156 93.9874 93.9874C94.3156 93.6592 94.5 93.2141 94.5 92.75V19.25C94.5 18.7859 94.3156 18.3408 93.9874 18.0126C93.6592 17.6844 93.2141 17.5 92.75 17.5H19.25C18.7859 17.5 18.3408 17.6844 18.0126 18.0126C17.6844 18.3408 17.5 18.7859 17.5 19.25ZM21 91V35H91V91H21ZM91 21V31.5H21V21H91Z" fill="black"/>
<path d="M24.5 24.5H29.75V28H24.5V24.5Z" fill="black"/>
<path d="M33.25 24.5H38.5V28H33.25V24.5Z" fill="black"/>
<path d="M42 24.5H47.25V28H42V24.5Z" fill="black"/>
<path d="M56 24.5H87.5V28H56V24.5Z" fill="black"/>
<path d="M74.7372 49.5127L72.2627 51.9872L81.5254 61.2499L72.2627 70.5127L74.7372 72.9872L85.2372 62.4872C85.3999 62.3248 85.5289 62.132 85.6169 61.9197C85.705 61.7074 85.7503 61.4798 85.7503 61.2499C85.7503 61.0201 85.705 60.7925 85.6169 60.5802C85.5289 60.3679 85.3999 60.1751 85.2372 60.0127L74.7372 49.5127Z" fill="#654ACE"/>
<path d="M37.2626 49.5127L26.7626 60.0127C26.6 60.1751 26.4709 60.3679 26.3829 60.5802C26.2948 60.7925 26.2495 61.0201 26.2495 61.2499C26.2495 61.4798 26.2948 61.7074 26.3829 61.9197C26.4709 62.132 26.6 62.3248 26.7626 62.4872L37.2626 72.9872L39.7371 70.5127L30.4744 61.2499L39.7371 51.9872L37.2626 49.5127Z" fill="#654ACE"/>
<path d="M45.5981 71.1609L54.3472 46.6621L57.6415 47.8386L48.8924 72.3374L45.5981 71.1609Z" fill="#654ACE"/>
<path d="M56 68.25H59.5V71.75H56V68.25Z" fill="#654ACE"/>
<path d="M63 68.25H66.5V71.75H63V68.25Z" fill="#654ACE"/>
</svg>
