<svg width="17" height="15" viewBox="0 0 17 15" fill="none" xmlns="http://www.w3.org/2000/svg">
<path d="M12.4102 0.375C13.4718 0.375 14.4931 0.794583 15.2444 1.54746C15.9965 2.29875 16.4168 3.31208 16.4168 4.37292V10.6271C16.4168 12.8358 14.6197 14.625 12.4102 14.625H4.58933C2.37979 14.625 0.583496 12.8358 0.583496 10.6271V4.37292C0.583496 2.16417 2.37187 0.375 4.58933 0.375H12.4102ZM13.3056 4.49167C13.1393 4.48296 12.981 4.53917 12.8615 4.65L9.29183 7.5C8.83266 7.88079 8.17479 7.88079 7.7085 7.5L4.146 4.65C3.89979 4.46792 3.55937 4.49167 3.35433 4.70542C3.14058 4.91917 3.11683 5.25958 3.29812 5.49708L3.40183 5.6L7.00391 8.41042C7.44725 8.75875 7.98479 8.94875 8.54766 8.94875C9.10895 8.94875 9.656 8.75875 10.0985 8.41042L13.6697 5.5525L13.7331 5.48917C13.9223 5.25958 13.9223 4.92708 13.7244 4.6975C13.6143 4.57954 13.4631 4.5075 13.3056 4.49167Z" fill="white"/>
</svg>
