<svg width="18" height="18" viewBox="0 0 18 18" fill="none" xmlns="http://www.w3.org/2000/svg">
<g clip-path="url(#clip0_24_567)">
<path d="M1.68225 5.14061L8.6175 0.982615C8.73406 0.912676 8.86744 0.875732 9.00338 0.875732C9.13931 0.875732 9.27269 0.912676 9.38925 0.982615L16.3177 5.14136C16.3733 5.17468 16.4194 5.22182 16.4513 5.27821C16.4832 5.3346 16.5 5.39831 16.5 5.46311V15.0001C16.5 15.199 16.421 15.3898 16.2803 15.5304C16.1397 15.6711 15.9489 15.7501 15.75 15.7501H2.25C2.05109 15.7501 1.86032 15.6711 1.71967 15.5304C1.57902 15.3898 1.5 15.199 1.5 15.0001V5.46236C1.49999 5.39756 1.51677 5.33385 1.54871 5.27746C1.58065 5.22107 1.62666 5.17393 1.68225 5.14061ZM13.7595 6.18311L9.04575 10.2624L4.23525 6.17861L3.26475 7.32161L9.05475 12.2379L14.7405 7.31786L13.7595 6.18311V6.18311Z" fill="#0A142F"/>
</g>
<defs>
<clipPath id="clip0_24_567">
<rect width="18" height="18" fill="white"/>
</clipPath>
</defs>
</svg>
