<svg width="107" height="107" viewBox="0 0 107 107" fill="none" xmlns="http://www.w3.org/2000/svg">
<circle cx="53.5" cy="53.5" r="53.5" fill="white"/>
<path d="M30.2076 73.5469H33.8539V81.4408H32.2715V75.0853L30.8596 75.0907H30.5202C29.7318 75.0907 29.2936 75.1238 29.2062 75.1895C28.7354 75.3173 28.3375 75.5891 28.0126 76.0051C27.6628 76.5054 27.4875 77.0033 27.4875 77.5C27.4875 78.113 27.7244 78.6772 28.1989 79.1915C28.5165 79.4942 28.7902 79.6768 29.0204 79.7389C29.2501 79.8558 29.6461 79.9142 30.208 79.9142H31.3087V81.4412H29.9896C29.0113 81.4412 28.1848 81.1843 27.5092 80.6696C27.0203 80.2826 26.6936 79.9323 26.5295 79.6188C26.1208 78.969 25.916 78.3047 25.916 77.6259V77.3962C25.916 76.4469 26.2717 75.5765 26.9836 74.7848C27.414 74.3648 27.7666 74.1002 28.0398 73.991C28.2374 73.8813 28.5088 73.7771 28.8559 73.6792C29.1658 73.5904 29.6167 73.5469 30.2076 73.5469ZM41.8189 75.1233C41.9757 75.3349 42.089 75.5153 42.1583 75.6648C42.2607 75.8442 42.3568 76.0849 42.4487 76.3875C42.5579 76.7528 42.6128 77.2489 42.6128 77.8765V81.4403H41.0305V77.707C41.0305 76.4514 40.4631 75.6122 39.3281 75.1886C39.0689 75.1156 38.841 75.0776 38.6434 75.0735C38.4463 75.0776 38.2202 75.1156 37.9646 75.1886C36.8295 75.6122 36.2622 76.4514 36.2622 77.707V81.4403H34.6745V77.8765C34.6745 77.2489 34.7293 76.7528 34.8385 76.3875C34.9296 76.0849 35.0265 75.8442 35.129 75.6648C35.1983 75.5117 35.3129 75.3313 35.4738 75.1233C36.3243 74.0793 37.381 73.5573 38.6434 73.5573C39.9067 73.5573 40.9648 74.0793 41.8189 75.1233ZM46.2586 73.5519C47.3212 73.5519 47.9302 73.5759 48.0874 73.623C48.5179 73.6742 49.0032 73.855 49.5433 74.165C49.8387 74.3471 50.1532 74.6267 50.4849 75.0023C51.0762 75.736 51.3717 76.5702 51.3717 77.504C51.3717 78.0514 51.2661 78.568 51.0545 79.0533C50.6385 79.9985 49.9538 80.6814 49.0018 81.101C48.56 81.3275 47.8812 81.4403 46.9655 81.4403H43.6096L43.4343 81.4077V79.9074H47.135C47.5292 79.9074 47.8337 79.873 48.0494 79.8037C48.6226 79.6102 49.0417 79.322 49.3081 78.9386C49.633 78.4538 49.7952 77.9807 49.7952 77.5208C49.7952 77.0577 49.6548 76.6014 49.3738 76.1519C49.1985 75.8932 49.0055 75.6961 48.7938 75.5606C48.4069 75.2434 47.8541 75.0844 47.135 75.0844H43.4343V73.5514L46.2586 73.5519ZM52.1932 73.5519H57.2628C58.1568 73.5519 58.8577 73.8201 59.3648 74.3566C59.5914 74.5682 59.7481 74.7726 59.8356 74.9697C60.0332 75.3639 60.131 75.7491 60.131 76.1252V76.3495C60.131 76.9259 59.8809 77.49 59.3816 78.041C59.0603 78.3473 58.768 78.5444 58.5052 78.6323C59.1695 79.3406 59.5016 80.2763 59.5016 81.4403H57.9085V81.3198C57.9085 80.4589 57.5595 79.7742 56.8626 79.2672C56.4648 78.9862 55.9446 78.8453 55.3025 78.8453H52.1932V77.3237H57.3611C57.9266 77.3237 58.3099 77.0446 58.5107 76.4859C58.5324 76.373 58.5469 76.2779 58.5542 76.2013C58.5542 75.8909 58.425 75.61 58.1658 75.3585C57.9433 75.1831 57.7059 75.0957 57.4544 75.0957C57.4544 75.0812 57.3778 75.0735 57.2242 75.0735H52.1932V73.5519ZM64.8993 73.5573H64.9536C66.1657 73.5573 67.2002 74.054 68.058 75.0463C68.6131 75.7912 68.8899 76.6014 68.8899 77.4769V77.5317C68.8899 78.7433 68.3829 79.7724 67.3683 80.6188C66.6311 81.1667 65.8227 81.4403 64.9432 81.4403H64.8884C63.684 81.4403 62.6527 80.9478 61.7954 79.9622C61.4963 79.5427 61.2865 79.1575 61.1655 78.8072C61.0237 78.3691 60.9521 77.9404 60.9521 77.5204V77.466C60.9521 76.2761 61.4428 75.2579 62.4248 74.411C63.089 73.9366 63.6949 73.6702 64.2422 73.6117C64.4099 73.5759 64.6288 73.5573 64.8993 73.5573ZM62.5285 77.4882C62.5285 78.1747 62.7968 78.7769 63.3333 79.2948C63.8113 79.7031 64.3129 79.9079 64.8385 79.9079H64.9917C65.4154 79.9079 65.8458 79.7638 66.284 79.4756C66.7362 79.1435 67.043 78.7202 67.2034 78.2055C67.2542 78.0704 67.2909 77.8385 67.3126 77.5104C67.3126 76.8389 67.0521 76.2457 66.5296 75.731C66.0407 75.2964 65.5042 75.0794 64.9201 75.0794C64.2377 75.0794 63.6319 75.3639 63.1026 75.9335C62.8801 76.2258 62.7392 76.4732 62.6808 76.678C62.5797 76.9626 62.5285 77.2326 62.5285 77.4882ZM69.711 73.5573H71.2929V81.4403H69.711V73.5573ZM74.9718 73.5519C76.0339 73.5519 76.6429 73.5759 76.8001 73.623C77.2306 73.6742 77.7159 73.855 78.256 74.165C78.5515 74.3471 78.8659 74.6267 79.1976 75.0023C79.789 75.736 80.0844 76.5702 80.0844 77.504C80.0844 78.0514 79.9788 78.568 79.7672 79.0533C79.3512 79.9985 78.6666 80.6814 77.7146 81.101C77.2728 81.3275 76.594 81.4403 75.6782 81.4403H72.3224L72.147 81.4077V79.9074H75.8477C76.2419 79.9074 76.5464 79.873 76.7621 79.8037C77.3353 79.6102 77.7544 79.322 78.0209 78.9386C78.3458 78.4538 78.508 77.9807 78.508 77.5208C78.508 77.0577 78.3675 76.6014 78.0866 76.1519C77.9112 75.8932 77.7182 75.6961 77.5066 75.5606C77.1196 75.2434 76.5668 75.0844 75.8477 75.0844H72.147V73.5514L74.9718 73.5519ZM37.2242 41.477C35.7375 41.4761 34.5322 42.6841 34.5317 44.1699L34.5335 55.4477C34.534 56.939 35.7398 58.1425 37.2274 58.1425C38.715 58.1425 39.9207 56.939 39.9194 55.4486V44.1694C39.9185 42.6832 38.7118 41.4761 37.2242 41.477ZM58.9429 31.3492L60.8225 27.9172C60.9226 27.7378 60.8565 27.5094 60.6752 27.4074C60.4917 27.3109 60.2652 27.3766 60.1682 27.557L58.2696 31.0252C56.6719 30.3147 54.8843 29.9164 52.9925 29.9182C51.1061 29.9164 49.319 30.3138 47.7276 31.0211L45.8272 27.5615C45.7285 27.3794 45.501 27.3127 45.3215 27.412C45.1389 27.5112 45.0719 27.7396 45.1734 27.9181L47.0534 31.3483C43.3586 33.2537 40.8623 36.8832 40.8646 41.0488L65.1245 41.0461C65.1245 36.8805 62.6327 33.26 58.9429 31.3492ZM47.4748 36.6539C46.917 36.653 46.4612 36.199 46.4612 35.638C46.4612 35.0789 46.9156 34.6194 47.4762 34.6194C48.038 34.6194 48.4934 35.0789 48.4939 35.638C48.4939 36.1981 48.038 36.6539 47.4748 36.6539ZM58.5215 36.6521C57.9606 36.653 57.5043 36.1981 57.5043 35.6353C57.5065 35.0779 57.9601 34.6185 58.5215 34.6158C59.0793 34.6176 59.537 35.0779 59.5365 35.6362C59.5379 36.1972 59.0816 36.6521 58.5215 36.6521ZM40.9629 41.9858L40.967 59.4638C40.9661 61.0533 42.2521 62.3366 43.8407 62.3366L45.7973 62.3375L45.8 68.3052C45.7991 69.791 47.0072 70.999 48.4912 70.999C49.9788 70.999 51.1845 69.79 51.185 68.3033L51.1832 62.3375L54.819 62.3366L54.8204 68.3033C54.8204 69.7882 56.0289 70.9981 57.5129 70.9954C59.0009 70.9963 60.2072 69.7873 60.2067 68.3015L60.2049 62.3357L62.1687 62.3339C63.7538 62.3348 65.0429 61.0497 65.0438 59.4592L65.0406 41.9813L40.9629 41.9858ZM71.466 44.1667C71.466 42.6791 70.2606 41.4729 68.773 41.4738C67.2859 41.4729 66.081 42.68 66.081 44.1676L66.0833 55.4464C66.0828 56.9349 67.2877 58.1384 68.7758 58.1384C70.2629 58.1384 71.4678 56.9349 71.4678 55.4446L71.466 44.1667Z" fill="#A4C439"/>
</svg>
