<svg width="107" height="107" viewBox="0 0 107 107" fill="none" xmlns="http://www.w3.org/2000/svg">
<circle cx="53.5" cy="53.5" r="53.5" fill="white"/>
<path d="M47.8259 55.7296C47.8259 55.7296 46.3379 56.5955 48.8867 56.8882C51.9743 57.2407 53.5525 57.19 56.9546 56.547C56.9546 56.547 57.8513 57.1075 59.1001 57.5933C51.4713 60.8616 41.8343 57.4038 47.8259 55.7296ZM46.8929 51.4634C46.8929 51.4634 45.2236 52.7 47.7743 52.9637C51.073 53.304 53.6771 53.3321 58.1866 52.4639C58.1866 52.4639 58.8088 53.0964 59.7889 53.4413C50.5669 56.1392 40.295 53.6538 46.8929 51.4634Z" fill="#0074BD"/>
<path d="M54.7514 44.2264C56.6323 46.3915 54.2584 48.3381 54.2584 48.3381C54.2584 48.3381 59.0312 45.8745 56.8394 42.7882C54.7917 39.9113 53.2226 38.4826 61.72 33.5544C61.72 33.5544 48.3809 36.8849 54.7514 44.2264Z" fill="#EA2D2E"/>
<path d="M64.841 58.885C64.841 58.885 65.943 59.7936 63.6275 60.4959C59.225 61.8294 45.3013 62.2318 41.4339 60.5489C40.0446 59.944 42.6515 59.1048 43.4712 58.9285C44.3262 58.7432 44.8147 58.7772 44.8147 58.7772C43.2686 57.6883 34.821 60.9155 40.524 61.8412C56.0771 64.362 68.8747 60.7057 64.841 58.885ZM48.5421 47.0431C48.5421 47.0431 41.4602 48.7255 46.0345 49.3372C47.9666 49.5955 51.8155 49.5362 55.4033 49.2353C58.3346 48.9892 61.2763 48.4632 61.2763 48.4632C61.2763 48.4632 60.2436 48.9063 59.4955 49.4165C52.3026 51.3083 38.4102 50.427 42.4099 48.4931C45.7916 46.8568 48.5421 47.0431 48.5421 47.0431ZM61.2468 54.1435C68.558 50.3454 65.1772 46.6951 62.8178 47.1867C62.241 47.3072 61.9818 47.4115 61.9818 47.4115C61.9818 47.4115 62.197 47.0743 62.6062 46.9298C67.2743 45.2895 70.8635 51.7696 61.1009 54.3361C61.1009 54.3361 61.2128 54.2346 61.2468 54.1435Z" fill="#0074BD"/>
<path d="M56.84 25.595C56.84 25.595 60.8886 29.6455 52.9993 35.8728C46.6727 40.8694 51.5565 43.7177 52.9966 46.9734C49.3036 43.6411 46.5948 40.7076 48.4118 37.978C51.0803 33.9714 58.473 32.028 56.84 25.595Z" fill="#EA2D2E"/>
<path d="M49.261 64.4396C56.2772 64.8882 67.0548 64.1899 67.3099 60.8699C67.3099 60.8699 66.8196 62.1282 61.5104 63.1269C55.521 64.2543 48.1328 64.1233 43.752 63.4001C43.752 63.4001 44.6491 64.1432 49.261 64.4396Z" fill="#0074BD"/>
<path d="M66.9863 70.3946H66.7724V70.275H67.3479V70.3946H67.1349V70.9914H66.9859L66.9863 70.3946ZM68.135 70.4245H68.1323L67.9202 70.9914H67.8223L67.6116 70.4245H67.6094V70.9914H67.468V70.275H67.6751L67.8704 70.782L68.0661 70.275H68.2718V70.9914H68.135V70.4245ZM48.1114 77.1262C47.4498 77.6999 46.7502 78.0225 46.1217 78.0225C45.2272 78.0225 44.742 77.4851 44.742 76.6246C44.742 75.6934 45.2612 75.0115 47.342 75.0115H48.1109L48.1114 77.1262ZM49.9379 79.187V72.8084C49.9379 71.1776 49.0077 70.1019 46.7674 70.1019C45.4597 70.1019 44.3133 70.4254 43.3812 70.8368L43.6495 71.9665C44.3835 71.6969 45.3328 71.4467 46.2644 71.4467C47.5559 71.4467 48.1109 71.9665 48.1109 73.0422V73.8483H47.4657C44.3296 73.8483 42.9145 75.0649 42.9145 76.8947C42.9145 78.4711 43.847 79.3669 45.6029 79.3669C46.7312 79.3669 47.5744 78.9011 48.3615 78.2192L48.5047 79.1875L49.9379 79.187ZM56.0334 79.187H53.7555L51.0137 70.2655H53.0033L54.7053 75.7478L55.0836 77.3949C55.9427 75.0124 56.5517 72.5936 56.8562 70.2659H58.7915C58.2736 73.2026 57.3402 76.4275 56.0334 79.187ZM64.7732 77.1262C64.1094 77.6999 63.4093 78.0225 62.7831 78.0225C61.8877 78.0225 61.4029 77.4851 61.4029 76.6246C61.4029 75.6934 61.9235 75.0115 64.002 75.0115H64.7728L64.7732 77.1262ZM66.6007 79.187V72.8084C66.6007 71.1776 65.6677 70.1019 63.4293 70.1019C62.1202 70.1019 60.9742 70.4254 60.0422 70.8368L60.3109 71.9665C61.0449 71.6969 61.9956 71.4467 62.9272 71.4467C64.2168 71.4467 64.7732 71.9665 64.7732 73.0422V73.8483H64.128C60.991 73.8483 59.5764 75.0649 59.5764 76.8947C59.5764 78.4711 60.508 79.3669 62.2634 79.3669C63.3921 79.3669 64.234 78.9011 65.0234 78.2192L65.1675 79.1875L66.6007 79.187ZM40.9117 80.7032C40.3919 81.464 39.55 82.0662 38.6293 82.4056L37.728 81.343C38.429 80.9832 39.0294 80.4028 39.309 79.8617C39.55 79.3801 39.6502 78.7606 39.6502 77.2785V67.0913H41.5914V77.1385C41.5914 79.1209 41.4337 79.9225 40.9117 80.7032Z" fill="#EA2D2E"/>
</svg>
