<svg width="107" height="107" viewBox="0 0 107 107" fill="none" xmlns="http://www.w3.org/2000/svg">
<circle cx="53.5" cy="53.5" r="53.5" fill="white"/>
<path d="M75.0994 37.7451L55.1179 26.1428C53.8578 25.4251 52.217 25.4251 50.9469 26.1428L30.752 37.7451C29.4515 38.4932 28.5312 39.8992 28.5312 41.4031V64.5769C28.5312 66.0808 29.4756 67.4873 30.776 68.2395L36.1116 71.27C38.6618 72.526 39.563 72.526 40.7235 72.526C44.4994 72.526 46.6562 70.2427 46.6562 66.2602V43.3819C46.6562 43.0589 46.4881 42.5781 46.171 42.5781H43.623C43.3004 42.5781 42.5781 43.0589 42.5781 43.3815V66.2598C42.5781 68.0252 40.9813 69.7819 37.997 68.2898L32.4839 65.112C32.2917 65.0078 32.1562 64.798 32.1562 64.5769V41.4031C32.1562 41.1847 32.4077 40.9654 32.6012 40.8535L52.7308 29.2712C52.9189 29.1647 53.1953 29.1647 53.3829 29.2712L73.2669 40.8508C73.4572 40.9654 73.3902 41.1779 73.3902 41.4031V64.5769C73.3902 64.798 73.4731 65.0132 73.285 65.1197L53.3086 76.7088C53.1373 76.8117 52.9248 76.8117 52.7372 76.7088L47.6137 73.6507C47.4592 73.561 47.2757 73.5288 47.1275 73.6117C45.702 74.4196 45.4392 74.527 44.102 74.9906C43.773 75.1052 43.2877 75.3041 44.2878 75.8647L50.9931 79.8313C51.6352 80.2029 52.3647 80.3959 53.0988 80.3959C53.8428 80.3959 54.5714 80.2029 55.2135 79.8313L75.0989 68.2395C76.3994 67.4819 77.0156 66.0808 77.0156 64.5769V41.4031C77.0156 39.8992 76.3994 38.4968 75.0994 37.7451ZM59.303 60.9047C53.9896 60.9047 52.8192 59.4389 52.4291 56.7967C52.3838 56.5121 52.1422 56.1719 51.8527 56.1719H49.2558C48.9346 56.1719 48.6763 56.5615 48.6763 56.8814C48.6763 60.2645 50.5155 64.3634 59.3034 64.3634C65.6648 64.3634 69.312 61.8916 69.312 57.5172C69.312 53.1799 66.3817 52.0416 60.2124 51.2251C53.9765 50.4009 53.343 49.9844 53.343 48.5236C53.343 47.3191 53.8795 45.7128 58.4969 45.7128C62.6226 45.7128 64.1432 46.5982 64.769 49.3791C64.8225 49.6405 65.0613 49.8281 65.3309 49.8281H67.9382C68.0986 49.8281 68.2517 49.7633 68.3641 49.6487C68.4729 49.5254 68.5304 49.3709 68.5159 49.2051C68.1122 44.4164 64.9308 42.1848 58.4964 42.1848C52.773 42.1848 49.3587 44.6018 49.3587 48.6531C49.3587 53.0476 52.7558 54.2619 58.2499 54.8052C64.8225 55.4496 65.3336 56.4102 65.3336 57.703C65.3336 59.9482 63.5311 60.9047 59.303 60.9047Z" fill="#83CD29"/>
</svg>
