<svg width="107" height="107" viewBox="0 0 107 107" fill="none" xmlns="http://www.w3.org/2000/svg">
<circle cx="53.5" cy="53.5" r="53.5" fill="white"/>
<g clip-path="url(#clip0_182_89)">
<path d="M59.5588 45.9502L53.7588 51.3515L48.3745 40.4861L51.1561 34.239C51.8593 32.992 53.0097 32.9775 53.7129 34.239L59.5588 45.9502Z" fill="#FFA000"/>
<path d="M53.7588 51.349L32.0596 71.5306L48.3745 40.4861L53.7588 51.349Z" fill="#F57F17"/>
<path d="M65.9195 37.6898C66.9587 36.699 68.0293 37.0349 68.2999 38.439L73.9404 71.2573L55.2306 82.49C54.5733 82.8573 52.8333 82.9999 52.8333 82.9999C52.8333 82.9999 51.2503 82.8066 50.6438 82.4731L32.062 71.5304L65.9195 37.6898Z" fill="#FFCA28"/>
<path d="M48.3745 40.486L32.062 71.5305L39.3313 26.1527C39.6044 24.7462 40.4019 24.6036 41.1197 25.8482L48.3745 40.486Z" fill="#FFA000"/>
</g>
<defs>
<clipPath id="clip0_182_89">
<rect width="58" height="58" fill="white" transform="translate(24 25)"/>
</clipPath>
</defs>
</svg>
