<svg width="107" height="107" viewBox="0 0 107 107" fill="none" xmlns="http://www.w3.org/2000/svg">
<circle cx="53.5" cy="53.5" r="53.5" fill="white"/>
<g clip-path="url(#clip0_182_95)">
<path fill-rule="evenodd" clip-rule="evenodd" d="M52.9999 25.6851C42.3546 25.6851 33.7217 34.3157 33.7217 44.9633C33.7217 53.4807 39.2453 60.7071 46.9054 63.2559C47.8687 63.4345 48.2226 62.8377 48.2226 62.3284C48.2226 61.8689 48.2045 60.35 48.1963 58.7396C42.8327 59.9055 41.7012 56.4649 41.7012 56.4649C40.8244 54.2365 39.5606 53.6438 39.5606 53.6438C37.8116 52.4475 39.6921 52.472 39.6921 52.472C41.6283 52.6079 42.6478 54.459 42.6478 54.459C44.3669 57.4061 47.1577 56.5537 48.2575 56.0612C48.431 54.8151 48.9304 53.9641 49.4818 53.4829C45.1998 52.9958 40.6984 51.3424 40.6984 43.9555C40.6984 41.8507 41.4515 40.1311 42.6849 38.7808C42.4847 38.2951 41.8249 36.334 42.8716 33.6786C42.8716 33.6786 44.4902 33.1612 48.1732 35.6556C49.7116 35.2283 51.3609 35.014 52.999 35.0067C54.6375 35.0145 56.2878 35.2288 57.8284 35.6556C61.5078 33.1616 63.1245 33.6791 63.1245 33.6791C64.1739 36.3344 63.5142 38.2951 63.3139 38.7813C64.55 40.1307 65.2977 41.8507 65.2977 43.956C65.2977 51.36 60.7877 52.9904 56.4948 53.4671C57.1863 54.0652 57.8026 55.2388 57.8026 57.0377C57.8026 59.6169 57.7808 61.6926 57.7808 62.3275C57.7808 62.8395 58.1279 63.4412 59.1048 63.2518C66.7608 60.6998 72.2772 53.4761 72.2772 44.9615C72.2781 34.3162 63.647 25.6851 52.9999 25.6851Z" fill="#181616"/>
<path d="M41.0236 53.3638C40.9806 53.4598 40.8297 53.4884 40.6928 53.4227C40.5524 53.3593 40.4744 53.2292 40.5197 53.1327C40.5605 53.0348 40.7119 53.0072 40.8519 53.0729C40.9923 53.1363 41.0716 53.2677 41.0236 53.3638ZM41.8043 54.2356C41.7124 54.3203 41.5325 54.2809 41.4101 54.1459C41.2842 54.0113 41.2606 53.8314 41.3539 53.7453C41.4482 53.6601 41.6226 53.7 41.7482 53.8346C41.875 53.9705 41.9 54.1486 41.8039 54.2351L41.8043 54.2356ZM42.5642 55.3448C42.4464 55.4273 42.2529 55.3503 42.1338 55.1785C42.015 55.0077 42.015 54.8025 42.136 54.7195C42.2557 54.6371 42.446 54.7114 42.5665 54.8813C42.6852 55.0557 42.6852 55.2615 42.5642 55.3448ZM43.6055 56.4178C43.4999 56.5343 43.2747 56.503 43.1103 56.344C42.9417 56.1886 42.895 55.9679 43.0006 55.8514C43.108 55.735 43.3341 55.7676 43.4999 55.9253C43.6676 56.0803 43.7183 56.3018 43.6055 56.4178ZM45.0428 57.0404C44.9957 57.1918 44.7791 57.2602 44.5607 57.1963C44.3423 57.1302 44.2 56.9534 44.2435 56.8012C44.2888 56.6489 44.5072 56.5778 44.727 56.6462C44.9445 56.7115 45.0877 56.8864 45.0428 57.0404ZM46.6197 57.156C46.6256 57.3146 46.4403 57.4469 46.211 57.4496C45.9808 57.455 45.7941 57.3264 45.7914 57.1696C45.7914 57.0092 45.9726 56.8787 46.2028 56.875C46.4321 56.8705 46.6197 56.9983 46.6197 57.156ZM48.0878 56.9063C48.115 57.0613 47.9564 57.2208 47.7285 57.2629C47.5047 57.3046 47.298 57.2085 47.269 57.0545C47.2418 56.8959 47.4036 56.7373 47.627 56.6956C47.8549 56.6557 48.0588 56.7486 48.0878 56.9063Z" fill="#181616"/>
<path d="M35.2622 74.0743H30.4138C30.3537 74.0743 30.2961 74.0982 30.2536 74.1407C30.2111 74.1832 30.1872 74.2408 30.1872 74.3009V76.6716C30.1872 76.7317 30.2111 76.7894 30.2536 76.8318C30.2961 76.8743 30.3537 76.8982 30.4138 76.8982H32.3047V79.8435C32.3047 79.8435 31.8801 79.9885 30.7052 79.9885C29.3204 79.9885 27.3851 79.4828 27.3851 75.2271C27.3851 70.9709 29.4006 70.4104 31.2929 70.4104C32.9305 70.4104 33.6355 70.6985 34.085 70.8377C34.2255 70.8802 34.3569 70.7398 34.3569 70.6147L34.8975 68.3242C34.8983 68.2899 34.8909 68.2559 34.8757 68.2251C34.8606 68.1943 34.8382 68.1677 34.8105 68.1475C34.6279 68.017 33.5159 67.3953 30.7061 67.3953C27.4689 67.3953 24.1484 68.7719 24.1484 75.3929C24.1484 82.0131 27.9502 82.9995 31.1537 82.9995C33.8063 82.9995 35.4154 81.8658 35.4154 81.8658C35.4815 81.8296 35.4888 81.7367 35.4888 81.6936V74.3004C35.4888 74.2404 35.4649 74.1827 35.4224 74.1402C35.3799 74.0977 35.3223 74.0743 35.2622 74.0743ZM60.026 67.9608H57.2954C57.2656 67.9609 57.2362 67.9669 57.2087 67.9784C57.1812 67.9899 57.1563 68.0068 57.1353 68.0279C57.1144 68.0491 57.0978 68.0742 57.0865 68.1018C57.0753 68.1294 57.0696 68.1589 57.0698 68.1887L57.0707 73.4649H52.8149V68.1887C52.8151 68.1589 52.8094 68.1294 52.7982 68.1019C52.787 68.0743 52.7705 68.0492 52.7495 68.0281C52.7286 68.0069 52.7038 67.9901 52.6763 67.9785C52.6489 67.967 52.6195 67.9609 52.5897 67.9608H49.8597C49.8299 67.9609 49.8004 67.9669 49.7729 67.9784C49.7454 67.9899 49.7205 68.0068 49.6996 68.0279C49.6786 68.0491 49.662 68.0742 49.6508 68.1018C49.6395 68.1294 49.6338 68.1589 49.634 68.1887V82.4757C49.634 82.6012 49.7355 82.7036 49.8597 82.7036H52.5897C52.6195 82.7035 52.649 82.6974 52.6764 82.6858C52.7039 82.6743 52.7288 82.6574 52.7497 82.6362C52.7706 82.6149 52.7871 82.5898 52.7983 82.5622C52.8095 82.5346 52.8152 82.5051 52.8149 82.4753V76.3644H57.0707L57.0634 82.4753C57.0634 82.6012 57.1649 82.7036 57.29 82.7036H60.026C60.0558 82.7035 60.0852 82.6974 60.1127 82.6858C60.1401 82.6743 60.165 82.6574 60.1859 82.6362C60.2069 82.6149 60.2234 82.5898 60.2346 82.5622C60.2458 82.5346 60.2514 82.5051 60.2512 82.4753V68.1882C60.2512 68.0623 60.1515 67.9608 60.026 67.9608ZM38.6539 68.2857C37.6824 68.2857 36.8939 69.08 36.8939 70.0633C36.8939 71.0452 37.6824 71.8418 38.6539 71.8418C39.6263 71.8418 40.4143 71.0452 40.4143 70.0633C40.4143 69.08 39.6258 68.2857 38.6539 68.2857ZM39.9933 72.6393H37.2718C37.1468 72.6393 37.0353 72.768 37.0353 72.893V82.3416C37.0353 82.6194 37.2084 82.7018 37.4323 82.7018H39.8837C40.1533 82.7018 40.219 82.5695 40.219 82.3371V79.4615V72.8672C40.2191 72.8375 40.2133 72.808 40.2021 72.7804C40.1908 72.7529 40.1742 72.7279 40.1533 72.7067C40.1323 72.6856 40.1074 72.6688 40.0799 72.6573C40.0525 72.6458 40.0231 72.6394 39.9933 72.6393ZM70.6273 72.6606H67.9176C67.8878 72.6608 67.8584 72.6669 67.831 72.6785C67.8036 72.6901 67.7788 72.707 67.7579 72.7282C67.737 72.7494 67.7206 72.7745 67.7094 72.8021C67.6982 72.8297 67.6926 72.8592 67.6928 72.889V79.8943C67.6928 79.8943 67.0041 80.3972 66.0276 80.3972C65.0511 80.3972 64.7919 79.9545 64.7919 78.998V72.889C64.7922 72.8592 64.7865 72.8296 64.7753 72.802C64.7641 72.7744 64.7476 72.7493 64.7267 72.7281C64.7058 72.7068 64.6809 72.69 64.6534 72.6784C64.626 72.6668 64.5965 72.6608 64.5667 72.6606H61.8172C61.757 72.6611 61.6995 72.6854 61.6572 72.7282C61.6149 72.771 61.5913 72.8288 61.5915 72.889V79.4602C61.5915 82.3013 63.1752 82.9964 65.3534 82.9964C67.1405 82.9964 68.5814 82.0085 68.5814 82.0085C68.5814 82.0085 68.6494 82.5296 68.6811 82.5908C68.7128 82.6524 68.793 82.7145 68.8805 82.7145L70.6295 82.7068C70.6594 82.7067 70.689 82.7007 70.7165 82.6892C70.7441 82.6776 70.7691 82.6608 70.7901 82.6395C70.8112 82.6183 70.8278 82.5932 70.8391 82.5656C70.8505 82.5379 70.8562 82.5083 70.8561 82.4784L70.8547 72.8876C70.8545 72.8275 70.8306 72.7699 70.7882 72.7273C70.7458 72.6847 70.6883 72.6606 70.6282 72.6601L70.6273 72.6606ZM78.0322 72.3398C76.4934 72.3398 75.4467 73.0262 75.4467 73.0262V68.1882C75.4469 68.1585 75.4412 68.129 75.43 68.1014C75.4188 68.0739 75.4022 68.0488 75.3813 68.0276C75.3604 68.0065 75.3355 67.9896 75.3081 67.9781C75.2807 67.9665 75.2513 67.9605 75.2215 67.9603H72.4842C72.4543 67.9603 72.4247 67.9662 72.3972 67.9777C72.3696 67.9892 72.3446 68.006 72.3235 68.0272C72.3024 68.0483 72.2858 68.0735 72.2745 68.1011C72.2632 68.1288 72.2574 68.1584 72.2576 68.1882V82.4753C72.2574 82.5051 72.2632 82.5347 72.2745 82.5624C72.2858 82.59 72.3024 82.6152 72.3235 82.6363C72.3446 82.6575 72.3696 82.6743 72.3972 82.6858C72.4247 82.6973 72.4543 82.7032 72.4842 82.7032H74.3837C74.4698 82.7032 74.5341 82.6592 74.5817 82.5818C74.6284 82.5047 74.6968 81.9229 74.6968 81.9229C74.6968 81.9229 75.816 82.9832 77.9357 82.9832C80.4234 82.9832 81.8507 81.7217 81.8507 77.3182C81.8507 72.9148 79.5715 72.3393 78.0318 72.3393L78.0322 72.3398ZM76.9629 80.3891C76.0235 80.3605 75.386 79.9341 75.386 79.9341V75.4097C75.386 75.4097 76.0149 75.0245 76.7862 74.9548C77.7617 74.8673 78.702 75.1623 78.702 77.4895C78.702 79.9441 78.2783 80.4285 76.9633 80.3886L76.9629 80.3891ZM48.1038 80.3356C47.9846 80.3356 47.6792 80.3841 47.3652 80.3841C46.3593 80.3841 46.0181 79.9165 46.0181 79.3111V75.2937H48.0662C48.0961 75.2937 48.1257 75.2878 48.1533 75.2763C48.1809 75.2648 48.206 75.2479 48.227 75.2267C48.2481 75.2055 48.2647 75.1803 48.276 75.1526C48.2873 75.1249 48.293 75.0952 48.2927 75.0653V72.8649C48.2929 72.8351 48.2871 72.8056 48.2758 72.778C48.2644 72.7504 48.2478 72.7253 48.2267 72.7041C48.2057 72.683 48.1806 72.6662 48.1531 72.6548C48.1256 72.6434 48.096 72.6375 48.0662 72.6375H46.0181L46.0149 69.9323C46.0149 69.8295 45.9623 69.7782 45.8436 69.7782H43.0524C42.9445 69.7782 42.8861 69.8263 42.8861 69.93V72.7258C42.8861 72.7258 41.4873 73.0634 41.393 73.0906C41.346 73.1043 41.3046 73.1329 41.2752 73.1722C41.2458 73.2114 41.2299 73.2591 41.2299 73.3081V75.0649C41.2297 75.0946 41.2354 75.1241 41.2466 75.1517C41.2578 75.1792 41.2744 75.2043 41.2953 75.2255C41.3162 75.2466 41.3411 75.2635 41.3685 75.275C41.3959 75.2866 41.4253 75.2926 41.4551 75.2928H42.8861V79.5195C42.8861 82.6597 45.0883 82.9678 46.5745 82.9678C47.2528 82.9678 48.0653 82.7503 48.1994 82.7005C48.281 82.6701 48.3276 82.5863 48.3276 82.4952L48.3295 80.5626C48.3285 80.5027 48.3044 80.4456 48.2621 80.4031C48.2199 80.3607 48.1628 80.3363 48.1029 80.3352L48.1038 80.3356Z" fill="#100E0F"/>
</g>
<defs>
<clipPath id="clip0_182_95">
<rect width="58" height="58" fill="white" transform="translate(24 25)"/>
</clipPath>
</defs>
</svg>
