<svg width="107" height="107" viewBox="0 0 107 107" fill="none" xmlns="http://www.w3.org/2000/svg">
<circle cx="53.5" cy="53.5" r="53.5" fill="white"/>
<g clip-path="url(#clip0_182_112)">
<path d="M43.3332 83.0001C48.6692 83.0001 52.9998 78.6694 52.9998 73.3334V63.6667H43.3332C37.9972 63.6667 33.6665 67.9974 33.6665 73.3334C33.6665 78.6694 37.9972 83.0001 43.3332 83.0001Z" fill="#0ACF83"/>
<path d="M33.6665 53.9999C33.6665 48.6639 37.9972 44.3333 43.3332 44.3333H52.9998V63.6666H43.3332C37.9972 63.6666 33.6665 59.3359 33.6665 53.9999Z" fill="#A259FF"/>
<path d="M33.6665 34.6667C33.6665 29.3307 37.9972 25 43.3332 25H52.9998V44.3333H43.3332C37.9972 44.3333 33.6665 40.0027 33.6665 34.6667Z" fill="#F24E1E"/>
<path d="M53 25H62.6667C68.0027 25 72.3333 29.3307 72.3333 34.6667C72.3333 40.0027 68.0027 44.3333 62.6667 44.3333H53V25Z" fill="#FF7262"/>
<path d="M72.3333 53.9999C72.3333 59.3359 68.0027 63.6666 62.6667 63.6666C57.3307 63.6666 53 59.3359 53 53.9999C53 48.6639 57.3307 44.3333 62.6667 44.3333C68.0027 44.3333 72.3333 48.6639 72.3333 53.9999Z" fill="#1ABCFE"/>
</g>
<defs>
<clipPath id="clip0_182_112">
<rect width="58" height="58" fill="white" transform="translate(24 25)"/>
</clipPath>
</defs>
</svg>
