<svg width="107" height="107" viewBox="0 0 107 107" fill="none" xmlns="http://www.w3.org/2000/svg">
<circle cx="53.5" cy="53.5" r="53.5" fill="white"/>
<path d="M62.5436 82.7003C60.7722 82.7003 59.1941 82.101 57.6741 81.5306C56.3715 81.0352 55.1438 80.5712 53.979 80.5712C52.9446 80.5712 51.7653 81.0135 50.5159 81.4775C49.0055 82.0357 47.2945 82.6761 45.4361 82.6761C42.3814 82.6761 39.6433 80.9265 37.0526 77.3377C36.9439 77.1855 26.3976 61.6971 31.5209 50.1961C34.3266 43.8983 38.3697 40.7011 43.5366 40.7011C46.2626 40.7011 48.7783 41.5566 50.7986 42.2453C51.9296 42.6296 52.9978 42.9921 53.5609 42.9921C54.2255 42.9921 55.2936 42.603 56.4174 42.1849C58.2927 41.4961 60.6321 40.6334 63.3146 40.6334C67.203 40.6334 70.7216 42.429 74.076 46.1216C74.1891 46.2478 74.2749 46.396 74.3277 46.557C74.3805 46.718 74.3993 46.8882 74.3829 47.0569C74.3642 47.2252 74.311 47.3878 74.2266 47.5346C74.1422 47.6814 74.0284 47.8092 73.8923 47.91C70.3567 50.4861 68.5636 53.4659 68.5636 56.7695C68.5636 60.8609 70.5839 63.8672 75.3085 66.8083C75.5571 66.9616 75.7414 67.2002 75.8268 67.4796C75.9122 67.7589 75.8929 68.0598 75.7725 68.326C71.3306 78.2633 67.2513 82.7003 62.5436 82.7003ZM53.6745 40.0099C53.3845 40.0099 53.0921 39.9906 52.8045 39.9567C52.5194 39.9228 52.2559 39.7879 52.0617 39.5764C51.8675 39.3649 51.7555 39.0909 51.746 38.804C51.427 30.7178 58.2806 25.7661 63.346 25.3069C63.6469 25.2813 63.9467 25.3681 64.1873 25.5507C64.4279 25.7333 64.5922 25.9986 64.6486 26.2953C65.2068 29.408 64.1628 32.83 61.7776 35.6816C59.5107 38.3931 56.4802 40.0099 53.6745 40.0099Z" fill="black"/>
</svg>
