<svg width="107" height="107" viewBox="0 0 107 107" fill="none" xmlns="http://www.w3.org/2000/svg">
<circle cx="53.5" cy="53.5" r="53.5" fill="white"/>
<path d="M53.0002 50.7377C55.3276 50.7377 57.2143 48.851 57.2143 46.5236C57.2143 44.1963 55.3276 42.3096 53.0002 42.3096C50.6728 42.3096 48.7861 44.1963 48.7861 46.5236C48.7861 48.851 50.6728 50.7377 53.0002 50.7377Z" fill="#61DAFB"/>
<path d="M53.0001 62.0204C56.3079 65.2376 59.5704 67.1407 62.1985 67.1407C63.0595 67.1407 63.8751 66.9595 64.5548 66.5517C66.911 65.1923 67.772 61.7938 66.9564 56.9454C66.8204 56.0845 66.6392 55.2235 66.4126 54.3173C67.3189 54.0454 68.1345 53.7735 68.9501 53.5017C73.5267 51.7345 76.0642 49.2876 76.0642 46.6142C76.0642 43.8954 73.5267 41.4485 68.9501 39.7267C68.1345 39.4095 67.3189 39.1376 66.4126 38.911C66.6392 38.0048 66.8204 37.1438 66.9564 36.2829C67.7267 31.3438 66.8657 27.9001 64.5095 26.5407C63.8298 26.1329 63.0142 25.9517 62.1532 25.9517C59.5704 25.9517 56.2626 27.8548 52.9548 31.072C49.6923 27.8548 46.4298 25.9517 43.8017 25.9517C42.9407 25.9517 42.1251 26.1329 41.4454 26.5407C39.0892 27.9001 38.2282 31.2985 39.0438 36.147C39.1798 37.0079 39.361 37.8688 39.5876 38.7751C38.6813 39.047 37.8657 39.3188 37.0501 39.5907C32.4735 41.3579 29.936 43.8048 29.936 46.4782C29.936 49.197 32.4735 51.6438 37.0501 53.3657C37.8657 53.6829 38.6813 53.9548 39.5876 54.1813C39.361 55.0876 39.1798 55.9485 39.0438 56.8095C38.2735 61.6579 39.1345 65.1017 41.4454 66.4157C42.1251 66.8235 42.9407 67.0048 43.8017 67.0048C46.4298 67.0954 49.6923 65.1923 53.0001 62.0204ZM50.4626 55.9032C51.2782 55.9485 52.1392 55.9485 53.0001 55.9485C53.861 55.9485 54.722 55.9485 55.5376 55.9032C54.722 56.9907 53.861 57.9876 53.0001 58.9392C52.1392 57.9876 51.2782 56.9907 50.4626 55.9032ZM44.8438 51.236C45.297 52.0063 45.7048 52.7313 46.2032 53.4563C44.7985 53.2751 43.4845 53.0485 42.2157 52.7767C42.6235 51.5532 43.0767 50.2845 43.6204 49.0157C43.9829 49.7407 44.3907 50.511 44.8438 51.236ZM42.2157 40.3157C43.4845 40.0438 44.7985 39.8173 46.2032 39.636C45.7501 40.361 45.297 41.086 44.8438 41.8563C44.3907 42.6267 43.9829 43.3517 43.6204 44.122C43.0313 42.8079 42.5782 41.5392 42.2157 40.3157ZM44.7079 46.5235C45.297 45.3001 45.9313 44.0767 46.6563 42.8532C47.336 41.6751 48.1063 40.497 48.8767 39.3188C50.236 39.2282 51.5954 39.1829 53.0001 39.1829C54.4501 39.1829 55.8095 39.2282 57.1235 39.3188C57.9392 40.497 58.6642 41.6751 59.3439 42.8532C60.0688 44.0767 60.7032 45.3001 61.2923 46.5235C60.7032 47.747 60.0688 48.9704 59.3439 50.1938C58.6642 51.372 57.8939 52.5501 57.1235 53.7282C55.7642 53.8188 54.4048 53.8642 53.0001 53.8642C51.5501 53.8642 50.1907 53.8188 48.8767 53.7282C48.061 52.5501 47.336 51.372 46.6563 50.1938C45.9313 48.9704 45.297 47.747 44.7079 46.5235ZM62.4251 44.0767L61.2017 41.811C60.7485 41.0407 60.3407 40.3157 59.8423 39.5907C61.247 39.772 62.561 39.9985 63.8298 40.2704C63.422 41.5392 62.9689 42.8079 62.4251 44.0767ZM62.4251 48.9704C62.9689 50.2392 63.422 51.5079 63.8298 52.7313C62.561 53.0032 61.247 53.2298 59.8423 53.411C60.2954 52.686 60.7485 51.961 61.2017 51.1907C61.6095 50.511 62.0173 49.7407 62.4251 48.9704ZM63.4673 64.6938C63.1048 64.9204 62.6517 65.011 62.1532 65.011C59.9329 65.011 57.1688 63.1985 54.4501 60.4798C55.7642 59.0751 57.0329 57.4892 58.3017 55.722C60.4313 55.5407 62.4704 55.2235 64.3735 54.7704C64.6001 55.586 64.736 56.4017 64.872 57.2173C65.5063 61.0688 65.0079 63.8329 63.4673 64.6938ZM65.8235 40.8142C70.8985 42.2642 73.9345 44.4845 73.9345 46.5235C73.9345 48.2907 71.8501 50.0579 68.1798 51.4626C67.4548 51.7345 66.6392 52.0063 65.8235 52.2329C65.2345 50.3751 64.5095 48.472 63.6032 46.5235C64.5095 44.5751 65.2798 42.672 65.8235 40.8142ZM62.1985 28.036C62.697 28.036 63.1048 28.1267 63.5126 28.3532C65.0079 29.2142 65.5517 31.9329 64.9173 35.8298C64.7814 36.6001 64.6001 37.4157 64.4188 38.2767C62.5157 37.8688 60.4767 37.5517 58.347 37.3251C57.1235 35.5579 55.8095 33.972 54.4954 32.5673C57.2142 29.8938 59.9782 28.036 62.1985 28.036ZM55.5376 37.1438C54.722 37.0985 53.861 37.0985 53.0001 37.0985C52.1392 37.0985 51.2782 37.0985 50.4626 37.1438C51.2782 36.0563 52.1392 35.0595 53.0001 34.1079C53.861 35.0595 54.722 36.1017 55.5376 37.1438ZM42.5329 28.3532C42.8954 28.1267 43.3485 28.036 43.847 28.036C46.0673 28.036 48.8313 29.8485 51.5501 32.5673C50.236 33.972 48.9673 35.5579 47.6985 37.3251C45.5688 37.5063 43.5298 37.8235 41.6267 38.2767C41.4001 37.461 41.2642 36.6454 41.1282 35.8298C40.4938 31.9782 40.9923 29.2595 42.5329 28.3532ZM40.1767 52.2329C35.1017 50.7829 32.0657 48.5626 32.0657 46.5235C32.0657 44.7563 34.1501 42.9892 37.8204 41.5845C38.5454 41.3126 39.361 41.0407 40.1767 40.8142C40.7657 42.672 41.4907 44.5751 42.397 46.5235C41.4907 48.472 40.7204 50.4204 40.1767 52.2329ZM41.1282 57.2173C41.2642 56.447 41.4454 55.6313 41.6267 54.7704C43.5298 55.1782 45.5688 55.4954 47.6985 55.722C48.922 57.4892 50.236 59.0751 51.5501 60.4798C48.8313 63.1532 46.0673 65.011 43.847 65.011C43.3485 65.011 42.9407 64.9204 42.5329 64.6938C40.9923 63.8329 40.4938 61.0688 41.1282 57.2173ZM39.2251 75.886C40.222 74.6626 40.2673 73.3032 39.7235 71.9438C39.1798 70.5845 38.047 69.9501 36.6423 69.9048C34.9657 69.8595 33.2438 69.9048 31.5673 69.9048H31.2501V81.6407H32.6095V77.2001H34.7392C35.011 77.2001 35.2376 77.2907 35.3735 77.5173L38.0923 81.7313C38.1376 81.822 38.2735 81.9579 38.3642 81.9579H40.1313C39.0438 80.2813 38.0017 78.6954 36.9142 77.0642C37.8657 76.9282 38.6813 76.611 39.2251 75.886ZM32.6095 75.7954V71.3095H33.1079C34.1501 71.3095 35.2376 71.2642 36.2798 71.3548C37.5032 71.4001 38.3642 72.3517 38.3642 73.5751C38.3642 74.7985 37.3673 75.7501 36.1438 75.7954C35.0563 75.8407 33.9688 75.7954 32.6095 75.7954ZM50.1454 76.3845C49.4204 73.2126 46.5204 72.397 44.3001 73.3938C42.5782 74.1642 41.8079 75.6595 41.7626 77.5173C41.7173 78.922 42.1251 80.1907 43.2126 81.1423C44.436 82.2298 45.9313 82.3657 47.472 82.0938C48.3329 81.9126 49.1032 81.5048 49.6923 80.8704C49.4657 80.5532 49.2392 80.236 49.0126 79.9642C47.7438 81.0517 46.3392 81.4142 44.7985 80.6892C43.8017 80.1907 43.3032 78.9673 43.2126 78.061H50.236V77.472C50.2814 77.0642 50.236 76.7017 50.1454 76.3845ZM43.3032 77.1095C43.1673 75.7501 44.5267 74.3001 46.022 74.3001C47.7438 74.2548 48.8314 75.297 48.8767 77.1095H43.3032ZM57.2142 73.1673C56.5345 73.0313 55.8095 72.986 55.1298 73.0313C54.0423 73.122 53.0907 73.6204 52.3204 74.436C52.547 74.7532 52.7282 75.0704 53.0001 75.4329C53.0907 75.3423 53.1813 75.2517 53.272 75.2063C53.997 74.5267 54.8579 74.1642 55.9001 74.2548C56.7157 74.3001 57.486 74.572 57.7126 75.3876C57.8939 76.022 57.8485 76.7017 57.8939 77.3813C57.7579 77.3813 57.7126 77.336 57.6673 77.2907C56.5798 76.3845 55.3564 76.2032 54.0423 76.5204C52.8189 76.8376 52.0485 77.7892 51.9579 79.0126C51.8673 80.4173 52.5017 81.4595 53.7251 81.9579C54.4954 82.2751 55.3563 82.2751 56.172 82.0938C56.8064 81.9579 57.0782 81.5954 57.9845 81.097V81.686H59.2532C59.2532 79.8735 59.2985 77.6532 59.2532 75.5688C59.2532 74.2548 58.4829 73.4392 57.2142 73.1673ZM57.8485 78.8767C57.8032 79.0126 57.8485 79.1485 57.8485 79.2845C57.8485 80.236 57.622 80.5532 56.7157 80.9157C56.0813 81.1423 55.4017 81.2329 54.722 81.0063C53.9517 80.7798 53.4079 80.1001 53.4079 79.3298C53.3626 78.5595 53.861 77.7892 54.6313 77.5626C55.6735 77.2001 56.6251 77.4267 57.486 78.061C57.7579 78.2876 57.9392 78.5142 57.8485 78.8767ZM64.9173 74.3907C66.0954 74.0282 67.1829 74.2548 67.9985 75.2517L68.1345 75.3423C68.4517 75.0704 68.7235 74.7985 69.086 74.4813C68.9501 74.3454 68.9048 74.2548 68.8142 74.1189C67.5001 72.7142 64.9173 72.5329 63.3314 73.6657C61.111 75.297 61.1564 78.4688 62.2439 80.1454C63.286 81.7313 64.7814 82.2751 66.5485 82.0485C67.5907 81.9126 68.4517 81.4142 69.1314 80.5532C68.8142 80.2813 68.497 80.0095 68.1798 79.6923C68.0892 79.7829 68.0438 79.8282 67.9985 79.9188C66.7751 81.2782 64.736 81.1423 63.6485 79.6923C63.0142 78.8313 62.8782 77.8345 63.0595 76.8376C63.1501 75.7048 63.7392 74.7985 64.9173 74.3907ZM74.3423 80.5532C74.2517 80.5985 74.2064 80.6438 74.2064 80.6438C73.8439 80.9157 73.4814 80.961 73.0735 80.8251C72.6657 80.6438 72.6204 80.2813 72.5751 79.9188V74.7532C72.5751 74.6626 72.5751 74.8438 72.6204 74.3907H74.3423V73.0313H72.5298V70.7657H71.1704V73.2126H69.9923C69.9017 73.2126 69.7657 73.3032 69.7657 73.3938C69.7204 73.711 69.7657 73.9376 69.7657 74.3907H71.2157V80.1907C71.2157 80.9157 71.397 81.5501 72.0314 81.9126C72.711 82.3204 74.0251 82.2298 74.6142 81.7313C74.7048 81.686 74.7501 81.5048 74.7501 81.4595C74.6142 81.1876 74.4782 80.8704 74.3423 80.5532Z" fill="#61DAFB"/>
</svg>
