<svg width="112" height="112" viewBox="0 0 112 112" fill="none" xmlns="http://www.w3.org/2000/svg">
<g clip-path="url(#clip0_182_260)">
<path d="M57.75 112V101.5H76.4523L89.9482 111.648C90.2079 111.844 90.5172 111.964 90.8413 111.994C91.1653 112.024 91.4912 111.963 91.7824 111.817C92.0736 111.672 92.3184 111.448 92.4894 111.172C92.6603 110.895 92.7506 110.576 92.75 110.25V64.7501C92.75 64.4784 92.6867 64.2105 92.5652 63.9675C92.4437 63.7245 92.2673 63.5131 92.05 63.3501L78.75 53.3751V36.7501C78.7628 32.0798 77.8491 27.4534 76.0617 23.1386C74.2744 18.8238 71.649 14.9064 68.3375 11.6131L57.2373 0.512858C57.0749 0.350203 56.882 0.221162 56.6697 0.133118C56.4574 0.0450742 56.2298 -0.000244141 56 -0.000244141C55.7702 -0.000244141 55.5426 0.0450742 55.3303 0.133118C55.118 0.221162 54.9251 0.350203 54.7627 0.512858L43.6625 11.6131C40.351 14.9064 37.7256 18.8238 35.9383 23.1386C34.1509 27.4534 33.2372 32.0798 33.25 36.7501V53.3751L19.95 63.3501C19.7327 63.5131 19.5563 63.7245 19.4348 63.9675C19.3133 64.2105 19.25 64.4784 19.25 64.7501V110.25C19.2501 110.575 19.3407 110.894 19.5118 111.17C19.6829 111.447 19.9276 111.67 20.2186 111.816C20.5095 111.961 20.8351 112.022 21.1589 111.992C21.4827 111.963 21.7919 111.844 22.0517 111.648L35.5477 101.5H54.25V112H57.75ZM36.75 54.2501V38.5001H75.25V77.0001H36.75V54.2501ZM89.25 65.6251V106.745L78.75 98.8489V57.7501L89.25 65.6251ZM46.137 14.0876L56 4.22461L65.863 14.0876C71.4644 19.6573 74.7936 27.1115 75.2028 35.0001H36.7973C37.2064 27.1115 40.5356 19.6573 46.137 14.0876ZM22.75 65.6251L33.25 57.7501V98.8489L22.75 106.745V65.6251ZM36.75 98.0001V80.5001H75.25V98.0001H57.75V84.0001H54.25V98.0001H36.75Z" fill="black"/>
<path d="M56 42C47.3165 42 40.25 49.0665 40.25 57.75C40.25 66.4335 47.3165 73.5 56 73.5C64.6835 73.5 71.75 66.4335 71.75 57.75C71.75 49.0665 64.6835 42 56 42ZM53.186 45.8395L51.2627 47.7627L53.7373 50.2373L58.2575 45.717C59.6776 45.9851 61.0387 46.5036 62.2773 47.2483L45.5 64.0255C44.3568 62.1317 43.7518 59.9621 43.75 57.75C43.75 51.9645 47.7855 47.1152 53.186 45.8395ZM56 70C55.951 70 55.9055 69.993 55.8565 69.993L62.4873 63.3623L60.0127 60.8877L51.6968 69.2038C50.227 68.6489 48.8778 67.8165 47.7225 66.752L65.0038 49.4707C67.0892 51.7236 68.2484 54.6801 68.25 57.75C68.25 64.505 62.755 70 56 70ZM15.75 36.75C19.6105 36.75 22.75 33.6105 22.75 29.75C22.75 25.8895 19.6105 22.75 15.75 22.75C11.8895 22.75 8.75 25.8895 8.75 29.75C8.75 33.6105 11.8895 36.75 15.75 36.75ZM15.75 26.25C17.6803 26.25 19.25 27.8197 19.25 29.75C19.25 31.6803 17.6803 33.25 15.75 33.25C13.8197 33.25 12.25 31.6803 12.25 29.75C12.25 27.8197 13.8197 26.25 15.75 26.25ZM85.75 10.5C85.75 7.6055 83.3945 5.25 80.5 5.25C77.6055 5.25 75.25 7.6055 75.25 10.5C75.25 13.3945 77.6055 15.75 80.5 15.75C83.3945 15.75 85.75 13.3945 85.75 10.5ZM78.75 10.5C78.75 9.53575 79.5358 8.75 80.5 8.75C81.4642 8.75 82.25 9.53575 82.25 10.5C82.25 11.4642 81.4642 12.25 80.5 12.25C79.5358 12.25 78.75 11.4642 78.75 10.5ZM96.25 28C90.4593 28 85.75 32.7093 85.75 38.5C85.75 44.2907 90.4593 49 96.25 49C102.041 49 106.75 44.2907 106.75 38.5C106.75 32.7093 102.041 28 96.25 28ZM96.25 45.5C92.3895 45.5 89.25 42.3605 89.25 38.5C89.25 34.6395 92.3895 31.5 96.25 31.5C100.11 31.5 103.25 34.6395 103.25 38.5C103.25 42.3605 100.11 45.5 96.25 45.5ZM7 54.25H10.5V78.75H7V54.25ZM103.25 52.5H106.75V66.5H103.25V52.5ZM24.5 3.5H28V21H24.5V3.5ZM0 0H3.5V8.75H0V0ZM108.5 99.75H112V112H108.5V99.75ZM68.25 91H71.75V94.5H68.25V91ZM61.25 91H64.75V94.5H61.25V91ZM68.25 84H71.75V87.5H68.25V84ZM61.25 84H64.75V87.5H61.25V84Z" fill="#654ACE"/>
</g>
<defs>
<clipPath id="clip0_182_260">
<rect width="112" height="112" fill="white"/>
</clipPath>
</defs>
</svg>
