<svg width="32" height="32" viewBox="0 0 32 32" fill="none" xmlns="http://www.w3.org/2000/svg">
<g clip-path="url(#clip0_24_418)">
<path d="M9.25332 6.66654C9.25296 7.37378 8.97167 8.05192 8.47133 8.55176C7.97098 9.05161 7.29256 9.33222 6.58532 9.33187C5.87807 9.33152 5.19994 9.05022 4.70009 8.54988C4.20024 8.04953 3.91963 7.37111 3.91998 6.66387C3.92034 5.95662 4.20163 5.27849 4.70197 4.77864C5.20232 4.27879 5.88074 3.99818 6.58798 3.99854C7.29523 3.99889 7.97336 4.28018 8.47321 4.78053C8.97306 5.28087 9.25367 5.95929 9.25332 6.66654V6.66654ZM9.33332 11.3065H3.99998V27.9999H9.33332V11.3065ZM17.76 11.3065H12.4533V27.9999H17.7067V19.2399C17.7067 14.3599 24.0666 13.9065 24.0666 19.2399V27.9999H29.3333V17.4265C29.3333 9.19987 19.92 9.50654 17.7067 13.5465L17.76 11.3065V11.3065Z" fill="white"/>
</g>
<defs>
<clipPath id="clip0_24_418">
<rect width="32" height="32" fill="white"/>
</clipPath>
</defs>
</svg>
