<svg width="112" height="112" viewBox="0 0 112 112" fill="none" xmlns="http://www.w3.org/2000/svg">
<path d="M108.5 35C108.5 27.2808 102.219 21 94.5 21C86.7808 21 80.5 27.2808 80.5 35C80.5011 36.989 80.9273 38.9549 81.7501 40.7657C82.5728 42.5766 83.7731 44.1908 85.2705 45.5H75.9745L64.2373 33.7627C64.0749 33.6001 63.882 33.4711 63.6697 33.383C63.4574 33.295 63.2298 33.2496 63 33.2496C62.7702 33.2496 62.5426 33.295 62.3303 33.383C62.118 33.4711 61.9251 33.6001 61.7627 33.7627L54.7627 40.7627C54.6001 40.9251 54.4711 41.118 54.383 41.3303C54.295 41.5426 54.2496 41.7702 54.2496 42C54.2496 42.2298 54.295 42.4574 54.383 42.6697C54.4711 42.882 54.6001 43.0749 54.7627 43.2373L70.5127 58.9873C70.675 59.1501 70.8678 59.2792 71.0802 59.3672C71.2925 59.4552 71.5201 59.5003 71.75 59.5H85.75V71.75H55.769L64.456 58.7213L61.544 56.7805L51.5638 71.75H47.25V63C47.25 62.5359 47.0656 62.0908 46.7374 61.7626C46.4092 61.4344 45.9641 61.25 45.5 61.25H31.5V54.25C31.5 50.561 29.197 47.4127 25.9595 46.1282C29.3177 43.5697 31.5 39.5395 31.5 35C31.5 27.2808 25.2192 21 17.5 21C9.78075 21 3.5 27.2808 3.5 35C3.5 39.5395 5.68225 43.5697 9.0405 46.1282C5.803 47.4127 3.5 50.561 3.5 54.25V78.75C3.5 83.5747 7.42525 87.5 12.25 87.5V108.5H15.75V87.5H28V106.75C28 107.214 28.1844 107.659 28.5126 107.987C28.8407 108.316 29.2859 108.5 29.75 108.5H42C42.4641 108.5 42.9092 108.316 43.2374 107.987C43.5656 107.659 43.75 107.214 43.75 106.75V80.5C43.7524 78.6058 43.1368 76.7625 41.9965 75.25H54.25V105H47.25V108.5H64.75V105H57.75V75.25H70.0455C68.8873 76.7557 68.2564 78.6004 68.25 80.5V106.75C68.25 107.214 68.4344 107.659 68.7626 107.987C69.0908 108.316 69.5359 108.5 70 108.5H82.25C82.7141 108.5 83.1592 108.316 83.4874 107.987C83.8156 107.659 84 107.214 84 106.75V87.5H96.25V108.5H99.75V87.5C104.575 87.5 108.5 83.5747 108.5 78.75V54.25C108.5 50.561 106.197 47.4127 102.96 46.1282C106.318 43.5697 108.5 39.5395 108.5 35ZM84 35C84 29.2092 88.7093 24.5 94.5 24.5C100.291 24.5 105 29.2092 105 35C105 40.7908 100.291 45.5 94.5 45.5C88.7093 45.5 84 40.7908 84 35ZM7 35C7 29.2092 11.7092 24.5 17.5 24.5C23.2908 24.5 28 29.2092 28 35C28 40.7908 23.2908 45.5 17.5 45.5C11.7092 45.5 7 40.7908 7 35ZM21 71.75V57.75H17.5V73.5C17.5 73.9641 17.6844 74.4092 18.0126 74.7374C18.3408 75.0656 18.7859 75.25 19.25 75.25H35C37.8945 75.25 40.25 77.6055 40.25 80.5V105H31.5V85.75C31.5 85.2859 31.3156 84.8408 30.9874 84.5126C30.6593 84.1844 30.2141 84 29.75 84H12.25C9.3555 84 7 81.6445 7 78.75V54.25C7 51.3555 9.3555 49 12.25 49H22.75C25.6445 49 28 51.3555 28 54.25V63C28 63.4641 28.1844 63.9092 28.5126 64.2374C28.8407 64.5656 29.2859 64.75 29.75 64.75H43.75V71.75H21ZM99.75 49C102.645 49 105 51.3555 105 54.25V78.75C105 81.6445 102.645 84 99.75 84H82.25C81.7859 84 81.3408 84.1844 81.0126 84.5126C80.6844 84.8408 80.5 85.2859 80.5 85.75V105H71.75V80.5C71.75 77.6055 74.1055 75.25 77 75.25H87.5C87.9641 75.25 88.4092 75.0656 88.7374 74.7374C89.0656 74.4092 89.25 73.9641 89.25 73.5V57.75C89.25 57.2859 89.0656 56.8408 88.7374 56.5126C88.4092 56.1844 87.9641 56 87.5 56H72.4745L58.4745 42L63 37.4745L74.0127 48.4873C74.175 48.6501 74.3678 48.7792 74.5802 48.8672C74.7925 48.9552 75.0201 49.0003 75.25 49H99.75Z" fill="black"/>
<path d="M41.3298 40.117C41.6496 40.2495 42.0016 40.2841 42.3411 40.2165C42.6807 40.1489 42.9925 39.9821 43.2373 39.7372L54.9745 28H73.5C76.3945 28 78.75 25.6445 78.75 22.75V8.75C78.75 5.8555 76.3945 3.5 73.5 3.5H38.5C35.6055 3.5 33.25 5.8555 33.25 8.75V22.75C33.25 25.6445 35.6055 28 38.5 28H40.25V38.5C40.25 39.207 40.6753 39.8475 41.3298 40.117ZM38.5 24.5C38.0359 24.5 37.5908 24.3156 37.2626 23.9874C36.9344 23.6592 36.75 23.2141 36.75 22.75V8.75C36.75 8.28587 36.9344 7.84075 37.2626 7.51256C37.5908 7.18437 38.0359 7 38.5 7H73.5C73.9641 7 74.4092 7.18437 74.7374 7.51256C75.0656 7.84075 75.25 8.28587 75.25 8.75V22.75C75.25 23.2141 75.0656 23.6592 74.7374 23.9874C74.4092 24.3156 73.9641 24.5 73.5 24.5H54.25C54.0201 24.4997 53.7925 24.5448 53.5802 24.6328C53.3678 24.7208 53.175 24.8499 53.0127 25.0127L43.75 34.2755V26.25C43.75 25.7859 43.5656 25.3407 43.2374 25.0126C42.9092 24.6844 42.4641 24.5 42 24.5H38.5Z" fill="#654ACE"/>
<path d="M40.25 10.5H50.75V14H40.25V10.5ZM40.25 17.5H71.75V21H40.25V17.5ZM54.25 10.5H71.75V14H54.25V10.5Z" fill="#654ACE"/>
</svg>
