<svg width="45" height="82" viewBox="0 0 45 82" fill="none" xmlns="http://www.w3.org/2000/svg">
<path d="M39.6676 0H5.19238C3.81651 0.00401667 2.49814 0.55236 1.52525 1.52525C0.55236 2.49814 0.00401667 3.81651 0 5.19238V76.7952C0.00418312 78.171 0.552571 79.4893 1.52543 80.4621C2.49828 81.435 3.81656 81.9834 5.19238 81.9876H39.6676C41.0434 81.9834 42.3617 81.435 43.3346 80.4621C44.3074 79.4893 44.8558 78.171 44.86 76.7952V5.19238C44.856 3.81651 44.3076 2.49814 43.3348 1.52525C42.3619 0.55236 41.0435 0.00401667 39.6676 0ZM28.7855 2.4284L27.9773 5.30403H16.7488L16.0301 2.4284H28.7855ZM42.431 76.7952C42.4288 77.5275 42.137 78.2291 41.6193 78.747C41.1015 79.2649 40.3999 79.5568 39.6676 79.5592H5.19238C4.4601 79.5568 3.75851 79.2649 3.24077 78.747C2.72303 78.2291 2.43121 77.5275 2.42904 76.7952V5.19238C2.43105 4.46006 2.7228 3.75829 3.24058 3.24039C3.75835 2.7225 4.46005 2.43058 5.19238 2.4284H13.5256L14.6224 6.81258C14.6878 7.07543 14.8394 7.3088 15.0529 7.47551C15.2664 7.64222 15.5296 7.73266 15.8004 7.73243H28.8946C29.1595 7.73146 29.4167 7.64426 29.6276 7.48401C29.8384 7.32376 29.9913 7.0992 30.0632 6.8443L31.3059 2.42523H39.6683C40.4005 2.4274 41.1021 2.71924 41.6198 3.23699C42.1376 3.75475 42.4294 4.45636 42.4316 5.18857L42.431 76.7952ZM17.4606 74.8362C17.4603 75.1582 17.3322 75.4668 17.1046 75.6944C16.877 75.9221 16.5683 76.0501 16.2464 76.0504H6.96294C6.64091 76.0504 6.33206 75.9225 6.10435 75.6948C5.87665 75.4671 5.74874 75.1583 5.74874 74.8362C5.74874 74.5142 5.87665 74.2054 6.10435 73.9777C6.33206 73.75 6.64091 73.622 6.96294 73.622H16.2451C16.4048 73.622 16.5628 73.6533 16.7103 73.7143C16.8578 73.7753 16.9919 73.8648 17.1048 73.9776C17.2177 74.0904 17.3073 74.2243 17.3685 74.3718C17.4296 74.5192 17.4612 74.6773 17.4612 74.8369L17.4606 74.8362ZM22.7646 74.8362C22.7643 75.1582 22.6363 75.4668 22.4086 75.6944C22.181 75.9221 21.8724 76.0501 21.5504 76.0504H20.2214C19.8994 76.0504 19.5906 75.9225 19.3629 75.6948C19.1352 75.4671 19.0072 75.1583 19.0072 74.8362C19.0072 74.5142 19.1352 74.2054 19.3629 73.9777C19.5906 73.75 19.8994 73.622 20.2214 73.622H21.5536C21.8752 73.6231 22.1833 73.7515 22.4104 73.9792C22.6375 74.2069 22.7651 74.5153 22.7653 74.8369L22.7646 74.8362ZM26.4244 33.2642C26.4903 33.4094 26.5268 33.5663 26.5317 33.7257C26.5366 33.8851 26.5098 34.044 26.4529 34.193L20.9757 48.6567C20.8616 48.9579 20.6326 49.2014 20.339 49.3337C20.0454 49.466 19.7112 49.4762 19.4101 49.3622C19.1089 49.2481 18.8654 49.0191 18.7331 48.7255C18.6008 48.4318 18.5906 48.0977 18.7046 47.7965L24.1812 33.3327C24.2663 33.1082 24.416 32.9139 24.6116 32.7744C24.8071 32.6349 25.0395 32.5566 25.2796 32.5492C25.5196 32.5419 25.7564 32.6059 25.9601 32.7332C26.1637 32.8605 26.3257 33.0453 26.4244 33.2642ZM37.9034 40.2348C38.0775 40.4494 38.1724 40.7174 38.1724 40.9938C38.1724 41.2702 38.0775 41.5381 37.9034 41.7528L32.5994 48.3827C32.3953 48.6255 32.1044 48.7789 31.7887 48.81C31.4731 48.8412 31.1578 48.7477 30.9102 48.5494C30.6626 48.3512 30.5023 48.064 30.4636 47.7492C30.425 47.4343 30.511 47.1169 30.7032 46.8646L35.3976 40.9941L30.7032 35.1229C30.5605 34.9444 30.471 34.7293 30.445 34.5022C30.4191 34.2751 30.4577 34.0453 30.5565 33.8392C30.6553 33.6331 30.8102 33.459 31.0035 33.337C31.1967 33.215 31.4205 33.1499 31.6491 33.1494C31.6945 33.1495 31.7398 33.152 31.7849 33.157C31.9436 33.1741 32.0973 33.2226 32.2371 33.2996C32.3769 33.3765 32.5001 33.4805 32.5994 33.6055L37.9034 40.2348ZM7.25411 41.7528C7.08006 41.5381 6.98508 41.2702 6.98508 40.9938C6.98508 40.7174 7.08006 40.4494 7.25411 40.2348L12.5581 33.6049C12.6578 33.4804 12.781 33.3767 12.9208 33.2998C13.0605 33.223 13.214 33.1744 13.3725 33.1568C13.5311 33.1392 13.6915 33.1531 13.8447 33.1975C13.9978 33.242 14.1407 33.3162 14.2652 33.4158C14.3897 33.5155 14.4934 33.6387 14.5703 33.7785C14.6472 33.9182 14.6958 34.0717 14.7133 34.2302C14.7309 34.3888 14.717 34.5492 14.6726 34.7024C14.6281 34.8555 14.554 34.9984 14.4543 35.1229L9.7599 40.9941L14.4543 46.8646C14.6508 47.1166 14.7401 47.4359 14.7029 47.7532C14.6656 48.0706 14.5048 48.3605 14.2554 48.5601C14.0059 48.7598 13.6878 48.8531 13.37 48.8199C13.0522 48.7867 12.7603 48.6296 12.5575 48.3827L7.25411 41.7528Z" fill="url(#paint0_linear_175_1372)"/>
<defs>
<linearGradient id="paint0_linear_175_1372" x1="-7.22246" y1="-5.16522" x2="81.5518" y2="36.2056" gradientUnits="userSpaceOnUse">
<stop offset="0.091" stop-color="#C570F2"/>
<stop offset="0.475" stop-color="#7D4BC3"/>
<stop offset="0.831" stop-color="#402C9B"/>
<stop offset="1" stop-color="#29218C"/>
</linearGradient>
</defs>
</svg>
