<svg width="48" height="58" viewBox="0 0 48 58" fill="none" xmlns="http://www.w3.org/2000/svg">
<path d="M24.0002 25.7377C26.3276 25.7377 28.2143 23.851 28.2143 21.5236C28.2143 19.1963 26.3276 17.3096 24.0002 17.3096C21.6728 17.3096 19.7861 19.1963 19.7861 21.5236C19.7861 23.851 21.6728 25.7377 24.0002 25.7377Z" fill="#61DAFB"/>
<path d="M24.0001 37.0204C27.3079 40.2376 30.5704 42.1407 33.1985 42.1407C34.0595 42.1407 34.8751 41.9595 35.5548 41.5517C37.911 40.1923 38.772 36.7938 37.9564 31.9454C37.8204 31.0845 37.6392 30.2235 37.4126 29.3173C38.3189 29.0454 39.1345 28.7735 39.9501 28.5017C44.5267 26.7345 47.0642 24.2876 47.0642 21.6142C47.0642 18.8954 44.5267 16.4485 39.9501 14.7267C39.1345 14.4095 38.3189 14.1376 37.4126 13.911C37.6392 13.0048 37.8204 12.1438 37.9564 11.2829C38.7267 6.34385 37.8657 2.9001 35.5095 1.54072C34.8298 1.13291 34.0142 0.95166 33.1532 0.95166C30.5704 0.95166 27.2626 2.85478 23.9548 6.07197C20.6923 2.85478 17.4298 0.95166 14.8017 0.95166C13.9407 0.95166 13.1251 1.13291 12.4454 1.54072C10.0892 2.9001 9.22822 6.29854 10.0438 11.147C10.1798 12.0079 10.361 12.8688 10.5876 13.7751C9.68135 14.047 8.86572 14.3188 8.0501 14.5907C3.47353 16.3579 0.936035 18.8048 0.936035 21.4782C0.936035 24.197 3.47353 26.6438 8.0501 28.3657C8.86572 28.6829 9.68135 28.9548 10.5876 29.1813C10.361 30.0876 10.1798 30.9485 10.0438 31.8095C9.27354 36.6579 10.1345 40.1017 12.4454 41.4157C13.1251 41.8235 13.9407 42.0048 14.8017 42.0048C17.4298 42.0954 20.6923 40.1923 24.0001 37.0204ZM21.4626 30.9032C22.2782 30.9485 23.1392 30.9485 24.0001 30.9485C24.861 30.9485 25.722 30.9485 26.5376 30.9032C25.722 31.9907 24.861 32.9876 24.0001 33.9392C23.1392 32.9876 22.2782 31.9907 21.4626 30.9032ZM15.8438 26.236C16.297 27.0063 16.7048 27.7313 17.2032 28.4563C15.7985 28.2751 14.4845 28.0485 13.2157 27.7767C13.6235 26.5532 14.0767 25.2845 14.6204 24.0157C14.9829 24.7407 15.3907 25.511 15.8438 26.236ZM13.2157 15.3157C14.4845 15.0438 15.7985 14.8173 17.2032 14.636C16.7501 15.361 16.297 16.086 15.8438 16.8563C15.3907 17.6267 14.9829 18.3517 14.6204 19.122C14.0313 17.8079 13.5782 16.5392 13.2157 15.3157ZM15.7079 21.5235C16.297 20.3001 16.9313 19.0767 17.6563 17.8532C18.336 16.6751 19.1063 15.497 19.8767 14.3188C21.236 14.2282 22.5954 14.1829 24.0001 14.1829C25.4501 14.1829 26.8095 14.2282 28.1235 14.3188C28.9392 15.497 29.6642 16.6751 30.3439 17.8532C31.0688 19.0767 31.7032 20.3001 32.2923 21.5235C31.7032 22.747 31.0688 23.9704 30.3439 25.1938C29.6642 26.372 28.8939 27.5501 28.1235 28.7282C26.7642 28.8188 25.4048 28.8642 24.0001 28.8642C22.5501 28.8642 21.1907 28.8188 19.8767 28.7282C19.061 27.5501 18.336 26.372 17.6563 25.1938C16.9313 23.9704 16.297 22.747 15.7079 21.5235ZM33.4251 19.0767L32.2017 16.811C31.7485 16.0407 31.3407 15.3157 30.8423 14.5907C32.247 14.772 33.561 14.9985 34.8298 15.2704C34.422 16.5392 33.9689 17.8079 33.4251 19.0767ZM33.4251 23.9704C33.9689 25.2392 34.422 26.5079 34.8298 27.7313C33.561 28.0032 32.247 28.2298 30.8423 28.411C31.2954 27.686 31.7485 26.961 32.2017 26.1907C32.6095 25.511 33.0173 24.7407 33.4251 23.9704ZM34.4673 39.6938C34.1048 39.9204 33.6517 40.011 33.1532 40.011C30.9329 40.011 28.1688 38.1985 25.4501 35.4798C26.7642 34.0751 28.0329 32.4892 29.3017 30.722C31.4313 30.5407 33.4704 30.2235 35.3735 29.7704C35.6001 30.586 35.736 31.4017 35.872 32.2173C36.5063 36.0688 36.0079 38.8329 34.4673 39.6938ZM36.8235 15.8142C41.8985 17.2642 44.9345 19.4845 44.9345 21.5235C44.9345 23.2907 42.8501 25.0579 39.1798 26.4626C38.4548 26.7345 37.6392 27.0063 36.8235 27.2329C36.2345 25.3751 35.5095 23.472 34.6032 21.5235C35.5095 19.5751 36.2798 17.672 36.8235 15.8142ZM33.1985 3.03604C33.697 3.03604 34.1048 3.12666 34.5126 3.35322C36.0079 4.21416 36.5517 6.93291 35.9173 10.8298C35.7814 11.6001 35.6001 12.4157 35.4188 13.2767C33.5157 12.8688 31.4767 12.5517 29.347 12.3251C28.1235 10.5579 26.8095 8.97197 25.4954 7.56729C28.2142 4.89385 30.9782 3.03604 33.1985 3.03604ZM26.5376 12.1438C25.722 12.0985 24.861 12.0985 24.0001 12.0985C23.1392 12.0985 22.2782 12.0985 21.4626 12.1438C22.2782 11.0563 23.1392 10.0595 24.0001 9.10791C24.861 10.0595 25.722 11.1017 26.5376 12.1438ZM13.5329 3.35322C13.8954 3.12666 14.3485 3.03604 14.847 3.03604C17.0673 3.03604 19.8313 4.84854 22.5501 7.56729C21.236 8.97197 19.9673 10.5579 18.6985 12.3251C16.5688 12.5063 14.5298 12.8235 12.6267 13.2767C12.4001 12.461 12.2642 11.6454 12.1282 10.8298C11.4938 6.97822 11.9923 4.25947 13.5329 3.35322ZM11.1767 27.2329C6.10166 25.7829 3.06572 23.5626 3.06572 21.5235C3.06572 19.7563 5.1501 17.9892 8.82041 16.5845C9.54541 16.3126 10.361 16.0407 11.1767 15.8142C11.7657 17.672 12.4907 19.5751 13.397 21.5235C12.4907 23.472 11.7204 25.4204 11.1767 27.2329ZM12.1282 32.2173C12.2642 31.447 12.4454 30.6313 12.6267 29.7704C14.5298 30.1782 16.5688 30.4954 18.6985 30.722C19.922 32.4892 21.236 34.0751 22.5501 35.4798C19.8313 38.1532 17.0673 40.011 14.847 40.011C14.3485 40.011 13.9407 39.9204 13.5329 39.6938C11.9923 38.8329 11.4938 36.0688 12.1282 32.2173ZM10.2251 50.886C11.222 49.6626 11.2673 48.3032 10.7235 46.9438C10.1798 45.5845 9.04697 44.9501 7.64229 44.9048C5.96572 44.8595 4.24385 44.9048 2.56729 44.9048H2.2501V56.6407H3.60947V52.2001H5.73916C6.01104 52.2001 6.2376 52.2907 6.37354 52.5173L9.09229 56.7313C9.1376 56.822 9.27354 56.9579 9.36416 56.9579H11.1313C10.0438 55.2813 9.00166 53.6954 7.91416 52.0642C8.86572 51.9282 9.68135 51.611 10.2251 50.886ZM3.60947 50.7954V46.3095H4.10791C5.1501 46.3095 6.2376 46.2642 7.27979 46.3548C8.50322 46.4001 9.36416 47.3517 9.36416 48.5751C9.36416 49.7985 8.36729 50.7501 7.14385 50.7954C6.05635 50.8407 4.96885 50.7954 3.60947 50.7954ZM21.1454 51.3845C20.4204 48.2126 17.5204 47.397 15.3001 48.3938C13.5782 49.1642 12.8079 50.6595 12.7626 52.5173C12.7173 53.922 13.1251 55.1907 14.2126 56.1423C15.436 57.2298 16.9313 57.3657 18.472 57.0938C19.3329 56.9126 20.1032 56.5048 20.6923 55.8704C20.4657 55.5532 20.2392 55.236 20.0126 54.9642C18.7438 56.0517 17.3392 56.4142 15.7985 55.6892C14.8017 55.1907 14.3032 53.9673 14.2126 53.061H21.236V52.472C21.2814 52.0642 21.236 51.7017 21.1454 51.3845ZM14.3032 52.1095C14.1673 50.7501 15.5267 49.3001 17.022 49.3001C18.7438 49.2548 19.8314 50.297 19.8767 52.1095H14.3032ZM28.2142 48.1673C27.5345 48.0313 26.8095 47.986 26.1298 48.0313C25.0423 48.122 24.0907 48.6204 23.3204 49.436C23.547 49.7532 23.7282 50.0704 24.0001 50.4329C24.0907 50.3423 24.1813 50.2517 24.272 50.2063C24.997 49.5267 25.8579 49.1642 26.9001 49.2548C27.7157 49.3001 28.486 49.572 28.7126 50.3876C28.8939 51.022 28.8485 51.7017 28.8939 52.3813C28.7579 52.3813 28.7126 52.336 28.6673 52.2907C27.5798 51.3845 26.3564 51.2032 25.0423 51.5204C23.8189 51.8376 23.0485 52.7892 22.9579 54.0126C22.8673 55.4173 23.5017 56.4595 24.7251 56.9579C25.4954 57.2751 26.3563 57.2751 27.172 57.0938C27.8064 56.9579 28.0782 56.5954 28.9845 56.097V56.686H30.2532C30.2532 54.8735 30.2985 52.6532 30.2532 50.5688C30.2532 49.2548 29.4829 48.4392 28.2142 48.1673ZM28.8485 53.8767C28.8032 54.0126 28.8485 54.1485 28.8485 54.2845C28.8485 55.236 28.622 55.5532 27.7157 55.9157C27.0813 56.1423 26.4017 56.2329 25.722 56.0063C24.9517 55.7798 24.4079 55.1001 24.4079 54.3298C24.3626 53.5595 24.861 52.7892 25.6313 52.5626C26.6735 52.2001 27.6251 52.4267 28.486 53.061C28.7579 53.2876 28.9392 53.5142 28.8485 53.8767ZM35.9173 49.3907C37.0954 49.0282 38.1829 49.2548 38.9985 50.2517L39.1345 50.3423C39.4517 50.0704 39.7235 49.7985 40.086 49.4813C39.9501 49.3454 39.9048 49.2548 39.8142 49.1189C38.5001 47.7142 35.9173 47.5329 34.3314 48.6657C32.111 50.297 32.1564 53.4688 33.2439 55.1454C34.286 56.7313 35.7814 57.2751 37.5485 57.0485C38.5907 56.9126 39.4517 56.4142 40.1314 55.5532C39.8142 55.2813 39.497 55.0095 39.1798 54.6923C39.0892 54.7829 39.0438 54.8282 38.9985 54.9188C37.7751 56.2782 35.736 56.1423 34.6485 54.6923C34.0142 53.8313 33.8782 52.8345 34.0595 51.8376C34.1501 50.7048 34.7392 49.7985 35.9173 49.3907ZM45.3423 55.5532C45.2517 55.5985 45.2064 55.6438 45.2064 55.6438C44.8439 55.9157 44.4814 55.961 44.0735 55.8251C43.6657 55.6438 43.6204 55.2813 43.5751 54.9188V49.7532C43.5751 49.6626 43.5751 49.8438 43.6204 49.3907H45.3423V48.0313H43.5298V45.7657H42.1704V48.2126H40.9923C40.9017 48.2126 40.7657 48.3032 40.7657 48.3938C40.7204 48.711 40.7657 48.9376 40.7657 49.3907H42.2157V55.1907C42.2157 55.9157 42.397 56.5501 43.0314 56.9126C43.711 57.3204 45.0251 57.2298 45.6142 56.7313C45.7048 56.686 45.7501 56.5048 45.7501 56.4595C45.6142 56.1876 45.4782 55.8704 45.3423 55.5532Z" fill="#61DAFB"/>
</svg>
