<svg width="112" height="112" viewBox="0 0 112 112" fill="none" xmlns="http://www.w3.org/2000/svg">
<path d="M75.2498 1.75004C69.1139 1.75818 63.088 3.37926 57.7761 6.45074C52.4643 9.52223 48.0533 13.9362 44.9853 19.25H12.2498C11.7857 19.25 11.3406 19.4344 11.0124 19.7626C10.6842 20.0908 10.4998 20.5359 10.4998 21V87.087L1.93359 104.218C1.80023 104.485 1.73732 104.781 1.75082 105.079C1.76431 105.377 1.85378 105.667 2.01071 105.921C2.16764 106.174 2.38683 106.384 2.64746 106.529C2.90809 106.674 3.20151 106.75 3.49984 106.75H62.9998C62.9998 107.678 63.3686 108.569 64.025 109.225C64.6813 109.881 65.5716 110.25 66.4998 110.25H83.9998C84.9281 110.25 85.8183 109.881 86.4747 109.225C87.1311 108.569 87.4998 107.678 87.4998 106.75H108.5C108.799 106.752 109.093 106.677 109.355 106.532C109.617 106.388 109.837 106.178 109.995 105.924C110.153 105.67 110.244 105.38 110.258 105.081C110.271 104.783 110.209 104.485 110.075 104.218L101.5 87.087V59.822C105.955 54.7761 108.858 48.5508 109.86 41.8946C110.861 35.2383 109.919 28.4343 107.147 22.3006C104.374 16.1669 99.8891 10.9645 94.2306 7.31886C88.5721 3.67321 81.9811 1.73944 75.2498 1.75004ZM62.9998 103.25H6.33134L13.3313 89.25H62.9998V103.25ZM62.9998 85.75H13.9998V22.75H43.1933C40.2827 29.3707 39.5064 36.7334 40.9722 43.8155C42.4381 50.8976 46.0733 57.3473 51.3728 62.2685L46.8228 67.7635L32.3451 59.7135C31.9751 59.5102 31.5441 59.4474 31.1315 59.5368C30.7188 59.6262 30.3524 59.8618 30.0998 60.2L19.5998 74.2L22.3998 76.3L31.9846 63.525L46.3993 71.533C46.7567 71.7318 47.1724 71.7991 47.5742 71.7234C47.976 71.6476 48.3386 71.4335 48.5991 71.1183L54.0451 64.533C57.7487 67.3683 61.9841 69.4309 66.4998 70.5985V82.25C65.5716 82.25 64.6813 82.6188 64.025 83.2752C63.3686 83.9315 62.9998 84.8218 62.9998 85.75ZM66.4998 106.75V85.75H83.9998V106.75H66.4998ZM69.9998 82.25V71.3125C73.4755 71.8959 77.0241 71.8959 80.4998 71.3125V82.25H69.9998ZM83.9998 82.25V70.5985C89.1631 69.2649 93.9523 66.7661 97.9998 63.294V85.75H87.4998C87.4998 84.8218 87.1311 83.9315 86.4747 83.2752C85.8183 82.6188 84.9281 82.25 83.9998 82.25ZM105.668 103.25H87.4998V89.25H98.6683L105.668 103.25ZM75.2498 68.25C69.0197 68.25 62.9295 66.4026 57.7494 62.9413C52.5692 59.4801 48.5318 54.5604 46.1476 48.8046C43.7635 43.0487 43.1397 36.7151 44.3551 30.6047C45.5705 24.4943 48.5706 18.8815 52.976 14.4762C57.3813 10.0708 62.9941 7.07074 69.1045 5.85531C75.2149 4.63987 81.5485 5.26368 87.3044 7.64784C93.0602 10.032 97.9799 14.0694 101.441 19.2496C104.902 24.4297 106.75 30.5199 106.75 36.75C106.74 45.1014 103.418 53.1079 97.513 59.0132C91.6077 64.9184 83.6012 68.2403 75.2498 68.25Z" fill="black"/>
<path d="M75.25 8.75C69.7121 8.75 64.2986 10.3922 59.694 13.4689C55.0895 16.5455 51.5006 20.9185 49.3814 26.0349C47.2621 31.1512 46.7076 36.7811 47.788 42.2125C48.8684 47.644 51.5352 52.6331 55.451 56.549C59.3669 60.4649 64.356 63.1316 69.7875 64.212C75.219 65.2924 80.8488 64.7379 85.9652 62.6186C91.0815 60.4994 95.4545 56.9105 98.5312 52.306C101.608 47.7014 103.25 42.2879 103.25 36.75C103.241 29.3266 100.288 22.2098 95.0393 16.9607C89.7902 11.7116 82.6734 8.7588 75.25 8.75ZM75.25 61.25C70.0167 61.2487 64.9231 59.5605 60.725 56.4358L79.205 34.0638L79.8245 39.7793L83.3035 39.4048L82.2378 29.5627C82.188 29.1018 81.9573 28.6794 81.5964 28.3884C81.2355 28.0974 80.7738 27.9615 80.3128 28.0105L70.4708 29.0763L70.8453 32.5553L76.4103 31.9533L58.0528 54.1782C54.02 50.1914 51.4962 44.9283 50.9125 39.2876C50.3288 33.6469 51.7213 27.9785 54.8522 23.2503C57.9832 18.5222 62.6584 15.0276 68.0794 13.3632C73.5005 11.6988 79.3313 11.968 84.576 14.1247C89.8207 16.2814 94.1541 20.1919 96.8361 25.1883C99.5182 30.1848 100.383 35.9574 99.2817 41.5203C98.1808 47.0833 95.1829 52.0915 90.7999 55.6899C86.417 59.2882 80.9208 61.2535 75.25 61.25Z" fill="#654ACE"/>
</svg>
