<svg width="112" height="112" viewBox="0 0 112 112" fill="none" xmlns="http://www.w3.org/2000/svg">
<path d="M106.75 78.75H105.021L108.486 50.967C108.515 50.7349 108.497 50.4994 108.434 50.2743C108.371 50.0492 108.263 49.839 108.117 49.6563L101.153 40.9518C102.634 39.8266 103.876 38.4179 104.806 36.8078C106.044 34.7011 106.701 32.3032 106.709 29.8594C106.717 27.4156 106.076 25.0135 104.851 22.8988L94.269 4.38201C93.6478 3.29176 91.8522 3.29176 91.231 4.38201L80.6505 22.8988C79.4257 25.0135 78.7846 27.4156 78.7926 29.8594C78.8006 32.3032 79.4574 34.7011 80.696 36.8078C81.6262 38.4179 82.8678 39.8266 84.3483 40.9518L77.385 49.6563C77.2387 49.8388 77.1307 50.0489 77.0672 50.2741C77.0038 50.4993 76.9863 50.7349 77.0157 50.967L80.4948 78.75H68.271L71.736 50.967C71.7651 50.7349 71.7474 50.4994 71.684 50.2743C71.6205 50.0492 71.5127 49.839 71.3667 49.6563L65.128 41.8565L69.7515 34.146C69.8952 33.9067 69.9795 33.6365 69.9975 33.3579C70.0154 33.0794 69.9665 32.8005 69.8548 32.5448L57.6048 4.54826C57.4672 4.23751 57.2424 3.97341 56.9575 3.78809C56.6727 3.60277 56.3401 3.50421 56.0003 3.50439C55.6605 3.50458 55.328 3.6035 55.0434 3.78913C54.7588 3.97477 54.5342 4.23911 54.397 4.55001L42.147 32.55C42.0348 32.8057 41.9857 33.0846 42.0036 33.3632C42.0216 33.6418 42.1062 33.9121 42.2502 34.1513L46.8737 41.8583L40.635 49.658C40.4887 49.8406 40.3807 50.0507 40.3172 50.2759C40.2538 50.501 40.2363 50.7367 40.2658 50.9688L43.7448 78.75H35V31.5C34.9954 31.2141 34.9196 30.9338 34.7795 30.6845L34.7935 30.6775L20.7935 4.42751C20.1845 3.28651 18.3137 3.28651 17.7047 4.42751L3.70475 30.6775L3.71875 30.6845C3.58003 30.9343 3.50491 31.2143 3.5 31.5V106.75C3.5 107.214 3.68437 107.659 4.01256 107.987C4.34075 108.316 4.78587 108.5 5.25 108.5H106.75C107.214 108.5 107.659 108.316 107.987 107.987C108.316 107.659 108.5 107.214 108.5 106.75V80.5C108.5 80.0359 108.316 79.5908 107.987 79.2626C107.659 78.9344 107.214 78.75 106.75 78.75ZM92.75 8.77801L99.6328 20.8215L94.1588 31.7713L88.8667 25.1563C88.7129 24.9641 88.5203 24.8066 88.3015 24.6939C88.0827 24.5813 87.8426 24.516 87.5968 24.5025C87.3511 24.489 87.1052 24.5274 86.8754 24.6153C86.6455 24.7033 86.4367 24.8387 86.2627 25.0128L82.355 28.9205C82.4838 27.4122 82.9388 25.9499 83.6885 24.6348L92.75 8.77801ZM82.929 33.2955L87.3548 28.8698L93.1333 36.0938C93.3173 36.3221 93.5557 36.5006 93.8265 36.613C94.0974 36.7254 94.3922 36.768 94.6838 36.737C94.9754 36.706 95.2546 36.6024 95.4958 36.4356C95.737 36.2688 95.9326 36.0442 96.0645 35.7823L101.719 24.4738L101.812 24.6348C102.729 26.2184 103.209 28.0173 103.203 29.8475C103.197 31.6776 102.704 33.4733 101.777 35.0508C99.8883 38.3075 96.5125 40.25 92.75 40.25C90.5917 40.2621 88.4837 39.5978 86.7223 38.3505C84.9608 37.1031 83.6343 35.3354 82.929 33.2955ZM80.5788 51.2663L86.59 43.75H98.9082L104.921 51.2663L101.495 78.75H84.021L80.5788 51.2663ZM57.75 31.5C57.7298 31.9506 57.5367 32.376 57.2107 32.6878C56.8847 32.9995 56.451 33.1735 56 33.1735C55.549 33.1735 55.1153 32.9995 54.7893 32.6878C54.4633 32.376 54.2702 31.9506 54.25 31.5C54.2702 31.0494 54.4633 30.624 54.7893 30.3122C55.1153 30.0005 55.549 29.8265 56 29.8265C56.451 29.8265 56.8847 30.0005 57.2107 30.3122C57.5367 30.624 57.7298 31.0494 57.75 31.5ZM54.25 13.6168V26.5738C53.2293 26.9335 52.345 27.6003 51.7184 28.4826C51.0917 29.3649 50.7535 30.4196 50.75 31.5018C50.75 34.3963 53.1055 36.7518 56 36.7518C58.8945 36.7518 61.25 34.3963 61.25 31.5018C61.2465 30.4196 60.9083 29.3649 60.2816 28.4826C59.655 27.6003 58.7707 26.9335 57.75 26.5738V13.615L66.2847 33.1188L62.0095 40.25H49.9905L45.7152 33.124L54.25 13.6168ZM43.8288 51.2663L49.84 43.75H62.1583L68.1712 51.2663L64.7448 78.75H47.271L43.8288 51.2663ZM31.0957 31.1798L26.25 36.0255L20.4872 30.2628C20.3249 30.1001 20.132 29.9711 19.9197 29.883C19.7074 29.795 19.4798 29.7497 19.25 29.7497C19.0202 29.7497 18.7926 29.795 18.5803 29.883C18.368 29.9711 18.1751 30.1001 18.0128 30.2628L12.25 36.0255L7.40425 31.1798L13.7673 19.25H24.7345L31.0957 31.1798ZM7 35.7245L10.5 39.2245V78.75H7V35.7245ZM14 39.2245L19.25 33.9745L24.5 39.2245V78.75H14V39.2245ZM28 39.2245L31.5 35.7245V78.75H28V39.2245ZM19.25 8.96876L22.8673 15.75H15.6327L19.25 8.96876ZM105 105H92.75V94.5H89.25V105H75.25V98H71.75V105H57.75V94.5H54.25V105H40.25V98H36.75V105H22.75V94.5H19.25V105H7V82.25H105V105Z" fill="black"/>
<path d="M57.75 52.5H61.25V56H57.75V52.5Z" fill="#654ACE"/>
<path d="M57.75 59.5H61.25V75.25H57.75V59.5Z" fill="#654ACE"/>
<path d="M94.5 52.5H98V56H94.5V52.5Z" fill="#654ACE"/>
<path d="M94.5 59.5H98V75.25H94.5V59.5Z" fill="#654ACE"/>
</svg>
