<svg width="30" height="30" viewBox="0 0 30 30" fill="none" xmlns="http://www.w3.org/2000/svg">
<path d="M24.9297 15.1094C24.9766 14.6875 25 14.3281 25 14.0313C25 12.5 24.7422 12.4922 23.75 12.4922H17.8516C18.4219 11.5547 18.75 10.5859 18.75 9.60156C18.75 6.64062 14.2734 5.19531 14.2734 2.72656C14.2734 1.8125 14.6719 1.0625 15 0C12.9297 0.546875 11.2969 2.61719 11.2969 4.8125C11.2969 8.58594 15.6953 8.61719 15.6953 11.4375C15.6953 11.7891 15.5859 12.1016 15.5312 12.4922H11.1641C11.2266 12.2578 11.2656 12.0078 11.2656 11.7656C11.2656 9.98438 8.21094 9.11719 8.21094 7.64063C8.21094 7.09375 8.28906 6.64063 8.46094 6C7.45313 6.39844 6.25 7.5625 6.25 8.875C6.25 10.9609 8.74219 11.1641 9.125 12.4922H1.25C0.257813 12.4922 0 12.5 0 14.0313C0 15.5625 0.601563 18.8203 2.21094 22.7031C3.82031 26.5859 5.67969 28.2969 6.99219 29.4375L7 29.4219C7.39844 29.7813 7.92188 29.9922 8.5 29.9922H16.5C17.0781 29.9922 17.6016 29.7813 18 29.4219L18.0078 29.4375C18.7109 28.8281 19.5703 28.0469 20.4609 26.8672C20.8281 27.0234 21.2266 27.1562 21.6641 27.2578C22.3203 27.4141 22.9766 27.4922 23.6016 27.4922C25.4766 27.4922 27.1641 26.7734 28.3516 25.4766C29.3984 24.3359 30 22.7891 30 21.2422C30 18.2031 27.8125 15.6641 24.9297 15.1094ZM23.6016 25.0156C22.9297 25.0156 22.3828 24.9219 21.875 24.6875C22.1875 24.0625 22.4922 23.4453 22.7891 22.7266C23.5781 20.8203 24.125 19.0547 24.4766 17.5859C26.1953 17.9219 27.5 19.4453 27.5 21.2656C27.5 23.0391 26.1563 25.0156 23.6016 25.0156Z" fill="#B85A60"/>
</svg>
