<svg width="32" height="32" viewBox="0 0 32 32" fill="none" xmlns="http://www.w3.org/2000/svg">
<g clip-path="url(#clip0_24_426)">
<path d="M28.724 8.66416C29.3334 11.0402 29.3334 16.0002 29.3334 16.0002C29.3334 16.0002 29.3334 20.9602 28.724 23.3362C28.3854 24.6495 27.3947 25.6828 26.14 26.0322C23.8614 26.6668 16 26.6668 16 26.6668C16 26.6668 8.14269 26.6668 5.86002 26.0322C4.60002 25.6775 3.61069 24.6455 3.27602 23.3362C2.66669 20.9602 2.66669 16.0002 2.66669 16.0002C2.66669 16.0002 2.66669 11.0402 3.27602 8.66416C3.61469 7.35083 4.60535 6.3175 5.86002 5.96816C8.14269 5.3335 16 5.3335 16 5.3335C16 5.3335 23.8614 5.3335 26.14 5.96816C27.4 6.32283 28.3894 7.35483 28.724 8.66416V8.66416ZM13.3334 20.6668L21.3334 16.0002L13.3334 11.3335V20.6668Z" fill="white"/>
</g>
<defs>
<clipPath id="clip0_24_426">
<rect width="32" height="32" fill="white"/>
</clipPath>
</defs>
</svg>
