<svg width="92" height="82" viewBox="0 0 92 82" fill="none" xmlns="http://www.w3.org/2000/svg">
<path d="M35.9606 62.2643H32.7341C32.4779 61.3905 31.9456 60.6232 31.2167 60.0773C30.4879 59.5315 29.6019 59.2365 28.6913 59.2365C27.7807 59.2365 26.8946 59.5315 26.1658 60.0773C25.4369 60.6232 24.9046 61.3905 24.6484 62.2643H9.30681C9.14533 62.2605 8.98475 62.2891 8.83447 62.3483C8.68418 62.4074 8.54719 62.4961 8.43165 62.6089C8.31612 62.7218 8.22429 62.8567 8.16161 63.0055C8.09892 63.1544 8.06667 63.3143 8.06667 63.4758C8.06667 63.6373 8.09892 63.7972 8.16161 63.9461C8.22429 64.0949 8.31612 64.2298 8.43165 64.3426C8.54719 64.4555 8.68418 64.5442 8.83447 64.6033C8.98475 64.6625 9.14533 64.6911 9.30681 64.6873H24.6484C24.9046 65.5611 25.4369 66.3284 26.1658 66.8743C26.8946 67.4201 27.7807 67.7151 28.6913 67.7151C29.6019 67.7151 30.4879 67.4201 31.2167 66.8743C31.9456 66.3284 32.4779 65.5611 32.7341 64.6873H35.9606C36.2771 64.6799 36.578 64.549 36.7992 64.3226C37.0204 64.0962 37.1442 63.7923 37.1442 63.4758C37.1442 63.1593 37.0204 62.8554 36.7992 62.629C36.578 62.4026 36.2771 62.2717 35.9606 62.2643ZM28.6923 65.2932C28.3329 65.2932 27.9816 65.1867 27.6828 64.987C27.384 64.7874 27.151 64.5036 27.0135 64.1717C26.8759 63.8397 26.8399 63.4743 26.91 63.1219C26.9801 62.7694 27.1531 62.4456 27.4071 62.1915C27.6612 61.9373 27.9849 61.7642 28.3374 61.694C28.6898 61.6238 29.0551 61.6597 29.3871 61.7972C29.7192 61.9346 30.003 62.1674 30.2028 62.4661C30.4025 62.7649 30.5092 63.1161 30.5094 63.4755C30.5088 63.9574 30.3171 64.4195 29.9764 64.7602C29.6356 65.101 29.1742 65.2927 28.6923 65.2932ZM35.9606 71.957H20.6184C20.3626 71.0828 19.8304 70.3151 19.1015 69.7689C18.3726 69.2227 17.4863 68.9275 16.5755 68.9275C15.6647 68.9275 14.7784 69.2227 14.0495 69.7689C13.3206 70.3151 12.7884 71.0828 12.5326 71.957H9.30616C8.98485 71.957 8.67668 72.0847 8.44948 72.3119C8.22228 72.5391 8.09466 72.8472 8.09466 73.1685C8.09466 73.4898 8.22228 73.798 8.44948 74.0252C8.67668 74.2524 8.98485 74.38 9.30616 74.38H12.5326C12.7884 75.2542 13.3206 76.0219 14.0495 76.5681C14.7784 77.1143 15.6647 77.4095 16.5755 77.4095C17.4863 77.4095 18.3726 77.1143 19.1015 76.5681C19.8304 76.0219 20.3626 75.2542 20.6184 74.38H35.9606C36.282 74.38 36.5901 74.2524 36.8173 74.0252C37.0445 73.798 37.1721 73.4898 37.1721 73.1685C37.1721 72.8472 37.0445 72.5391 36.8173 72.3119C36.5901 72.0847 36.282 71.957 35.9606 71.957ZM16.5758 74.9859C16.2165 74.9858 15.8653 74.8792 15.5665 74.6794C15.2678 74.4797 15.0351 74.1959 14.8976 73.8639C14.7602 73.5319 14.7243 73.1666 14.7944 72.8142C14.8645 72.4618 15.0376 72.1381 15.2917 71.884C15.5457 71.6299 15.8694 71.4568 16.2218 71.3867C16.5742 71.3166 16.9396 71.3525 17.2716 71.4899C17.6036 71.6274 17.8874 71.8602 18.0871 72.1589C18.2868 72.4576 18.3934 72.8089 18.3936 73.1682C18.3931 73.6501 18.2014 74.1122 17.8606 74.453C17.5198 74.7937 17.0578 74.9854 16.5758 74.9859ZM43.0572 63.414C43.0572 63.6022 43.0201 63.7886 42.9481 63.9625C42.8761 64.1364 42.7706 64.2943 42.6375 64.4274C42.5044 64.5605 42.3464 64.6661 42.1725 64.7381C41.9986 64.8101 41.8122 64.8472 41.624 64.8472H40.1908C39.8106 64.8472 39.446 64.6962 39.1772 64.4273C38.9083 64.1585 38.7573 63.7939 38.7573 63.4137C38.7573 63.0335 38.9083 62.6689 39.1772 62.4C39.446 62.1312 39.8106 61.9802 40.1908 61.9802H41.624C41.8123 61.9802 41.9987 62.0173 42.1726 62.0893C42.3466 62.1614 42.5046 62.267 42.6377 62.4002C42.7708 62.5333 42.8763 62.6914 42.9483 62.8654C43.0203 63.0393 43.0573 63.2258 43.0572 63.414ZM42.3 18.3705H38.8343C38.5504 17.4835 38.1935 16.6216 37.7672 15.7935L40.2159 13.3448C40.8151 12.7444 41.1517 11.9309 41.1517 11.0826C41.1517 10.2344 40.8151 9.42085 40.2159 8.82052L37.4493 6.05391C36.8444 5.46597 36.0324 5.13982 35.1889 5.14602C34.3451 5.13921 33.5326 5.46544 32.9278 6.05391L30.4789 8.50204C29.6508 8.07615 28.7889 7.71944 27.902 7.43557V3.97053C27.9011 3.12278 27.564 2.31001 26.9645 1.71057C26.3651 1.11113 25.5523 0.773975 24.7045 0.773101H20.7942C19.9464 0.773975 19.1336 1.11113 18.5342 1.71057C17.9347 2.31001 17.5976 3.12278 17.5967 3.97053V7.43622C16.7099 7.7204 15.848 8.07709 15.0198 8.50269L12.5703 6.05391C11.97 5.45508 11.1567 5.11878 10.3088 5.11878C9.46094 5.11878 8.64767 5.45508 8.04739 6.05391L5.27948 8.82052C4.68114 9.42105 4.34512 10.2342 4.34512 11.082C4.34512 11.9297 4.68114 12.7429 5.27948 13.3434L7.72822 15.7929C7.30241 16.6211 6.94569 17.483 6.66174 18.3699H3.19742C2.34968 18.3707 1.53687 18.7079 0.937424 19.3073C0.337979 19.9068 0.000874593 20.7195 0 21.5673V25.4783C0.00122428 26.3259 0.338501 27.1383 0.937908 27.7374C1.53731 28.3366 2.34991 28.6736 3.19742 28.6744H6.66376C6.94786 29.5613 7.30457 30.4232 7.73024 31.2514L5.28142 33.7009C4.68243 34.3011 4.34601 35.1144 4.34601 35.9623C4.34601 36.8103 4.68243 37.6236 5.28142 38.2238L8.04804 40.9917C8.64857 41.5901 9.46175 41.926 10.3095 41.926C11.1572 41.926 11.9704 41.5901 12.5709 40.9917L15.0204 38.5429C15.8485 38.9689 16.7105 39.3256 17.5974 39.6094V43.0738C17.5983 43.9215 17.9355 44.7343 18.5349 45.3337C19.1343 45.9332 19.9471 46.2703 20.7948 46.2712H24.7052C25.5529 46.2703 26.3657 45.9332 26.9652 45.3337C27.5646 44.7343 27.9017 43.9215 27.9026 43.0738V39.6074C28.7895 39.3235 29.6515 38.9668 30.4796 38.5409L32.9284 40.9904C33.5385 41.5704 34.3481 41.8939 35.1899 41.8939C36.0317 41.8939 36.8413 41.5704 37.4513 40.9904L40.2186 38.2238C40.8176 37.6236 41.154 36.8103 41.154 35.9623C41.154 35.1144 40.8176 34.3011 40.2186 33.7009L37.7698 31.2514C38.1955 30.4232 38.5522 29.5613 38.8362 28.6744H42.3013C43.149 28.6734 43.9616 28.3362 44.561 27.7368C45.1604 27.1374 45.4977 26.3247 45.4987 25.477V21.566C45.4973 20.7184 45.1598 19.9061 44.5603 19.3071C43.9608 18.708 43.1475 18.3712 42.3 18.3705ZM43.0129 25.4783C43.0128 25.6674 42.9376 25.8486 42.804 25.9823C42.6703 26.116 42.489 26.1911 42.3 26.1913H37.8999C37.6248 26.1915 37.3575 26.283 37.14 26.4515C36.9224 26.62 36.767 26.8559 36.698 27.1223C36.3606 28.4275 35.8422 29.679 35.1578 30.8404C35.0181 31.0777 34.961 31.3546 34.9957 31.6278C35.0304 31.9009 35.1548 32.1548 35.3494 32.3496L38.4583 35.4598C38.5915 35.5942 38.6662 35.7758 38.6662 35.965C38.6662 36.1542 38.5915 36.3357 38.4583 36.4701L35.6917 39.2367C35.5542 39.3639 35.3738 39.4345 35.1866 39.4345C34.9993 39.4345 34.8189 39.3639 34.6814 39.2367L31.5758 36.1311C31.3808 35.9364 31.1267 35.812 30.8533 35.7773C30.5799 35.7426 30.3028 35.7997 30.0653 35.9395C28.9049 36.6242 27.6539 37.1423 26.3492 37.4784C26.0828 37.5471 25.8468 37.7023 25.6783 37.9198C25.5099 38.1373 25.4187 38.4046 25.4189 38.6797V43.0791C25.4185 43.268 25.3433 43.4492 25.2096 43.5828C25.076 43.7164 24.8948 43.7917 24.7058 43.792H20.7955C20.6064 43.7919 20.4252 43.7167 20.2915 43.583C20.1578 43.4493 20.0827 43.2681 20.0825 43.0791V38.6797C20.0826 38.4043 19.9911 38.1367 19.8225 37.919C19.6538 37.7013 19.4175 37.5459 19.1508 37.4771C17.846 37.1408 16.5949 36.623 15.434 35.9389C15.1967 35.7984 14.9193 35.741 14.6457 35.7756C14.3721 35.8101 14.1178 35.9348 13.9229 36.1298L10.8173 39.2354C10.683 39.3688 10.5014 39.4436 10.3121 39.4436C10.1229 39.4436 9.94128 39.3688 9.80698 39.2354L7.04036 36.4688C6.90652 36.3347 6.83137 36.1531 6.83137 35.9636C6.83137 35.7742 6.90652 35.5925 7.04036 35.4585L10.1493 32.3496C10.3442 32.155 10.4687 31.901 10.5033 31.6277C10.5379 31.3545 10.4805 31.0775 10.3402 30.8404C9.65629 29.6794 9.1383 28.4283 8.80132 27.1236C8.73294 26.857 8.57777 26.6207 8.36027 26.452C8.14277 26.2833 7.87531 26.1918 7.60006 26.192H3.20073C3.01181 26.1916 2.8307 26.1164 2.69717 25.9827C2.56365 25.8491 2.4886 25.6679 2.48842 25.479V21.5679C2.4886 21.379 2.56365 21.1979 2.69717 21.0642C2.8307 20.9306 3.01181 20.8553 3.20073 20.855H7.59675C7.87211 20.8549 8.13969 20.7634 8.35737 20.5948C8.57505 20.4261 8.73046 20.1899 8.7993 19.9233C9.13571 18.6182 9.6538 17.3669 10.3383 16.2059C10.4786 15.9688 10.5359 15.6917 10.5012 15.4184C10.4665 15.1451 10.3417 14.8912 10.1466 14.6967L7.03778 11.5911C6.90426 11.4569 6.82927 11.2753 6.82927 11.0859C6.82927 10.8966 6.90426 10.715 7.03778 10.5808L9.80432 7.81418C9.93845 7.6805 10.1201 7.60544 10.3095 7.60544C10.4989 7.60544 10.6805 7.6805 10.8147 7.81418L13.9235 10.9198C14.1181 11.1148 14.3721 11.2394 14.6453 11.2741C14.9186 11.3088 15.1956 11.2516 15.4327 11.1114C16.5938 10.427 17.8451 9.90901 19.1502 9.57247C19.4168 9.50363 19.653 9.34815 19.8217 9.13047C19.9903 8.91279 20.0818 8.64525 20.0819 8.36988V3.97053C20.082 3.78149 20.1572 3.60025 20.2909 3.46658C20.4245 3.33291 20.6058 3.25774 20.7948 3.25756H24.7052C24.8942 3.25791 25.0753 3.33314 25.209 3.46677C25.3426 3.6004 25.4178 3.78154 25.4181 3.97053V8.36988C25.4182 8.64525 25.5098 8.91279 25.6784 9.13047C25.8471 9.34815 26.0832 9.50363 26.3498 9.57247C27.6546 9.90866 28.9055 10.4267 30.066 11.1114C30.3032 11.2519 30.5805 11.3093 30.8541 11.2746C31.1276 11.2399 31.3818 11.1151 31.5765 10.9198L34.6853 7.81087C34.8224 7.68286 35.003 7.61166 35.1905 7.61166C35.3781 7.61166 35.5586 7.68286 35.6957 7.81087L38.4629 10.5775C38.5958 10.712 38.6703 10.8935 38.6703 11.0826C38.6703 11.2718 38.5958 11.4532 38.4629 11.5878L35.3488 14.6967C35.1541 14.8914 35.0296 15.1454 34.9951 15.4186C34.9605 15.6918 35.0178 15.9687 35.1578 16.2059C35.8421 17.3668 36.3603 18.6179 36.6974 19.9226C36.7656 20.1894 36.9208 20.4258 37.1383 20.5947C37.3558 20.7635 37.6233 20.8551 37.8986 20.855H42.2986C42.4877 20.8552 42.6689 20.9303 42.8026 21.064C42.9362 21.1977 43.0115 21.3789 43.0117 21.5679L43.0129 25.4783ZM22.7467 14.4595C20.9541 14.4595 19.2017 14.991 17.7112 15.987C16.2207 16.9829 15.059 18.3985 14.3729 20.0546C13.6869 21.7108 13.5075 23.5332 13.8572 25.2914C14.2069 27.0496 15.0702 28.6646 16.3377 29.9321C17.6053 31.1997 19.2203 32.0629 20.9785 32.4127C22.7367 32.7624 24.559 32.5829 26.2152 31.8969C27.8714 31.2109 29.2869 30.0492 30.2829 28.5587C31.2788 27.0681 31.8104 25.3158 31.8104 23.5231C31.8078 21.1202 30.8521 18.8165 29.1531 17.1173C27.454 15.4181 25.1496 14.4623 22.7467 14.4595ZM22.7467 30.1017C21.4454 30.1017 20.1734 29.7158 19.0914 28.9929C18.0095 28.2699 17.1662 27.2423 16.6683 26.0401C16.1703 24.8378 16.04 23.515 16.2939 22.2387C16.5478 20.9624 17.1746 19.7901 18.0947 18.87C19.0149 17.9499 20.1873 17.3234 21.4636 17.0696C22.7398 16.8158 24.0627 16.9462 25.2649 17.4443C26.4671 17.9423 27.4946 18.7857 28.2174 19.8677C28.9403 20.9498 29.326 22.2219 29.3259 23.5231C29.3238 25.2672 28.6301 26.9393 27.3968 28.1726C26.1635 29.4058 24.4908 30.0996 22.7467 30.1017ZM87.2609 40.1724H55.8086C54.5956 40.1738 53.4327 40.6562 52.575 41.5139C51.7173 42.3716 51.2349 43.5345 51.2335 44.7475V52.6053H91.8386V44.7481C91.8374 43.5346 91.3546 42.3712 90.4964 41.5132C89.6381 40.6553 88.4744 40.1731 87.2609 40.1724ZM89.7202 50.4888H53.3479V44.7481C53.3486 44.0962 53.6078 43.4712 54.0688 43.0101C54.5297 42.5491 55.1547 42.2897 55.8067 42.2888H87.2589C87.911 42.2895 88.5361 42.5488 88.9971 43.0099C89.4582 43.471 89.7175 44.0961 89.7182 44.7481L89.7202 50.4888ZM51.2771 81.8387H51.7984C51.961 81.9355 52.1467 81.9866 52.336 81.9866C52.5252 81.9866 52.7109 81.9355 52.8735 81.8387H91.7204V56.4139H51.2778L51.2771 81.8387ZM56.3755 79.7243L71.5255 70.5654L86.8677 79.7243H56.3755ZM89.6039 78.893L73.5765 69.3259L89.6039 59.6371V78.893ZM87.3401 58.5323L71.5189 68.0968L55.496 58.5323H87.3401ZM53.3935 59.7422L69.4672 69.3371L53.3935 79.0536V59.7422ZM57.4903 31.6406L57.5199 31.636L76.9986 27.7375C77.2657 27.6836 77.5061 27.5391 77.679 27.3284C77.8519 27.1177 77.9467 26.8537 77.9474 26.5811C77.9537 22.6529 79.2648 18.8381 81.6748 15.7361L81.7408 15.6495L81.8505 15.6614C82.1186 15.691 82.3883 15.7042 82.658 15.701C84.4419 15.6871 86.1486 14.9715 87.4089 13.7088C87.6297 13.4874 87.7538 13.1874 87.7538 12.8746C87.7538 12.5619 87.6297 12.2619 87.4089 12.0404L75.7134 0.344925C75.6041 0.235191 75.4741 0.14821 75.331 0.0890077C75.1879 0.0298052 75.0344 -0.000447464 74.8796 5.0013e-06C74.7247 -0.000447464 74.5712 0.0298052 74.428 0.0890077C74.2849 0.14821 74.1549 0.235191 74.0456 0.344925C72.7828 1.60514 72.0669 3.31183 72.0528 5.09581C72.0504 5.36551 72.0639 5.63513 72.0931 5.90326L72.1049 6.01295L72.0184 6.07902C68.9165 8.48894 65.102 9.80027 61.174 9.80704C60.9015 9.8076 60.6375 9.90227 60.4268 10.0751C60.2161 10.2478 60.0716 10.4881 60.0176 10.7552L56.1191 30.2437C56.1105 30.2907 56.1066 30.3191 56.104 30.3468C56.084 30.5294 56.107 30.714 56.171 30.8861C56.235 31.0582 56.3383 31.2129 56.4727 31.3381C56.607 31.4632 56.7687 31.5552 56.9449 31.6068C57.1211 31.6584 57.307 31.6682 57.4876 31.6353L57.4903 31.6406ZM74.8683 3.21197L74.9899 2.96022L84.7969 12.7673L84.5451 12.8888C83.9367 13.1796 83.2709 13.3304 82.5966 13.3302C81.459 13.3394 80.3636 12.9 79.5478 12.1071L75.6493 8.20866C75.0249 7.55454 74.6155 6.72512 74.4759 5.83166C74.3363 4.93819 74.4731 4.02341 74.8683 3.20999V3.21197ZM62.146 12.1488L62.2993 12.1402C66.0333 11.9299 69.6334 10.6763 72.6904 8.52186L72.8662 8.3983L72.9752 8.58264C73.2556 9.0544 73.5939 9.48925 73.9822 9.87708L77.8807 13.7756C78.2688 14.1637 78.7038 14.5018 79.1758 14.7819L79.3595 14.8916L79.2366 15.0667C77.082 18.1239 75.8283 21.7243 75.6182 25.4585L75.6097 25.6118L60.8667 28.5601L67.1479 22.2783L67.2742 22.3384C68.112 22.7388 69.0643 22.8301 69.963 22.5962C70.8616 22.3623 71.6485 21.8183 72.1848 21.0602C72.7211 20.3022 72.9721 19.379 72.8935 18.4537C72.8149 17.5285 72.4117 16.6609 71.7552 16.0042C71.0987 15.3475 70.2313 14.944 69.3061 14.8651C68.3809 14.7861 67.4575 15.0368 66.6993 15.5728C65.9411 16.1088 65.3967 16.8956 65.1625 17.7941C64.9283 18.6926 65.0193 19.645 65.4194 20.483L65.4801 20.6098L59.1983 26.8917L62.146 12.1488ZM67.3931 18.7881C67.3931 18.4239 67.5193 18.071 67.7503 17.7894C67.9813 17.5078 68.3028 17.315 68.66 17.2438C69.0172 17.1727 69.388 17.2275 69.7093 17.3991C70.0306 17.5706 70.2825 17.8482 70.4221 18.1846C70.5617 18.521 70.5803 18.8954 70.4748 19.244C70.3694 19.5926 70.1463 19.8939 69.8437 20.0965C69.541 20.2991 69.1775 20.3906 68.815 20.3553C68.4525 20.3199 68.1135 20.16 67.8556 19.9028C67.7089 19.7564 67.5926 19.5823 67.5136 19.3906C67.4347 19.1989 67.3946 18.9934 67.3957 18.7861L67.3931 18.7881Z" fill="url(#paint0_linear_175_1374)"/>
<defs>
<linearGradient id="paint0_linear_175_1374" x1="0" y1="40.9933" x2="91.8386" y2="40.9933" gradientUnits="userSpaceOnUse">
<stop stop-color="#3BCEE7"/>
<stop offset="1" stop-color="#09A7FE"/>
</linearGradient>
</defs>
</svg>
